<svg width="149" height="38" viewBox="0 0 149 38" fill="none" xmlns="http://www.w3.org/2000/svg">
<path d="M27.8828 19.3516V32.6406C27.3828 33.2812 26.5938 33.9766 25.5156 34.7266C24.4531 35.4766 23.0625 36.125 21.3438 36.6719C19.625 37.2031 17.5156 37.4688 15.0156 37.4688C12.8438 37.4688 10.8594 37.1094 9.0625 36.3906C7.26562 35.6562 5.71875 34.5859 4.42188 33.1797C3.125 31.7734 2.125 30.0547 1.42188 28.0234C0.71875 25.9922 0.367188 23.6719 0.367188 21.0625V18.8125C0.367188 16.2031 0.695312 13.8828 1.35156 11.8516C2.02344 9.82031 2.97656 8.10156 4.21094 6.69531C5.46094 5.28906 6.95312 4.21875 8.6875 3.48438C10.4375 2.75 12.3906 2.38281 14.5469 2.38281C17.4375 2.38281 19.8125 2.85937 21.6719 3.8125C23.5469 4.76563 24.9844 6.07813 25.9844 7.75C26.9844 9.40625 27.6094 11.3125 27.8594 13.4688H21.5781C21.4062 12.2812 21.0625 11.2422 20.5469 10.3516C20.0312 9.44531 19.2969 8.74219 18.3438 8.24219C17.4062 7.72656 16.1875 7.46875 14.6875 7.46875C13.4219 7.46875 12.3047 7.71875 11.3359 8.21875C10.3672 8.71875 9.55469 9.44531 8.89844 10.3984C8.24219 11.3516 7.74219 12.5312 7.39844 13.9375C7.07031 15.3438 6.90625 16.9531 6.90625 18.7656V21.0625C6.90625 22.8906 7.09375 24.5156 7.46875 25.9375C7.84375 27.3438 8.38281 28.5312 9.08594 29.5C9.80469 30.4531 10.6875 31.1797 11.7344 31.6797C12.7969 32.1641 14 32.4062 15.3438 32.4062C16.5625 32.4062 17.5703 32.3047 18.3672 32.1016C19.1797 31.8828 19.8281 31.625 20.3125 31.3281C20.7969 31.0312 21.1719 30.7422 21.4375 30.4609V24.0625H14.6641V19.3516H27.8828ZM32.4062 24.5781V24.0859C32.4062 22.2266 32.6719 20.5156 33.2031 18.9531C33.7344 17.375 34.5078 16.0078 35.5234 14.8516C36.5391 13.6953 37.7812 12.7969 39.25 12.1562C40.7188 11.5 42.3906 11.1719 44.2656 11.1719C46.1719 11.1719 47.8594 11.5 49.3281 12.1562C50.8125 12.7969 52.0625 13.6953 53.0781 14.8516C54.0938 16.0078 54.8672 17.375 55.3984 18.9531C55.9297 20.5156 56.1953 22.2266 56.1953 24.0859V24.5781C56.1953 26.4219 55.9297 28.1328 55.3984 29.7109C54.8672 31.2734 54.0938 32.6406 53.0781 33.8125C52.0625 34.9688 50.8203 35.8672 49.3516 36.5078C47.8828 37.1484 46.2031 37.4688 44.3125 37.4688C42.4375 37.4688 40.7578 37.1484 39.2734 36.5078C37.7891 35.8672 36.5391 34.9688 35.5234 33.8125C34.5078 32.6406 33.7344 31.2734 33.2031 29.7109C32.6719 28.1328 32.4062 26.4219 32.4062 24.5781ZM38.5938 24.0859V24.5781C38.5938 25.6875 38.7031 26.7266 38.9219 27.6953C39.1406 28.6641 39.4766 29.5156 39.9297 30.25C40.3828 30.9844 40.9688 31.5625 41.6875 31.9844C42.4219 32.3906 43.2969 32.5938 44.3125 32.5938C45.3125 32.5938 46.1719 32.3906 46.8906 31.9844C47.6094 31.5625 48.1953 30.9844 48.6484 30.25C49.1172 29.5156 49.4609 28.6641 49.6797 27.6953C49.8984 26.7266 50.0078 25.6875 50.0078 24.5781V24.0859C50.0078 22.9922 49.8984 21.9688 49.6797 21.0156C49.4609 20.0469 49.1172 19.1953 48.6484 18.4609C48.1953 17.7109 47.6016 17.125 46.8672 16.7031C46.1484 16.2656 45.2812 16.0469 44.2656 16.0469C43.2656 16.0469 42.4062 16.2656 41.6875 16.7031C40.9688 17.125 40.3828 17.7109 39.9297 18.4609C39.4766 19.1953 39.1406 20.0469 38.9219 21.0156C38.7031 21.9688 38.5938 22.9922 38.5938 24.0859ZM82.8203 31.9375V37H65.6641V31.9375H82.8203ZM67.6094 2.875V37H61.1641V2.875H67.6094ZM93.2266 11.6406V37H87.0156V11.6406H93.2266ZM86.5938 5.00781C86.5938 4.08594 86.9062 3.32031 87.5312 2.71094C88.1719 2.10156 89.0312 1.79688 90.1094 1.79688C91.1875 1.79688 92.0391 2.10156 92.6641 2.71094C93.3047 3.32031 93.625 4.08594 93.625 5.00781C93.625 5.91406 93.3047 6.67188 92.6641 7.28125C92.0391 7.89062 91.1875 8.19531 90.1094 8.19531C89.0312 8.19531 88.1719 7.89062 87.5312 7.28125C86.9062 6.67188 86.5938 5.91406 86.5938 5.00781ZM105.203 17.0547V37H99.0156V11.6406H104.828L105.203 17.0547ZM104.219 23.4062H102.391C102.406 21.5625 102.656 19.8906 103.141 18.3906C103.625 16.8906 104.305 15.6016 105.18 14.5234C106.07 13.4453 107.125 12.6172 108.344 12.0391C109.562 11.4609 110.922 11.1719 112.422 11.1719C113.641 11.1719 114.742 11.3438 115.727 11.6875C116.711 12.0312 117.555 12.5781 118.258 13.3281C118.977 14.0781 119.523 15.0625 119.898 16.2812C120.289 17.4844 120.484 18.9688 120.484 20.7344V37H114.25V20.6875C114.25 19.5312 114.078 18.6172 113.734 17.9453C113.406 17.2734 112.922 16.7969 112.281 16.5156C111.656 16.2344 110.883 16.0938 109.961 16.0938C109.008 16.0938 108.172 16.2891 107.453 16.6797C106.75 17.0547 106.156 17.5781 105.672 18.25C105.203 18.9219 104.844 19.6953 104.594 20.5703C104.344 21.4453 104.219 22.3906 104.219 23.4062ZM132.133 0.976562V37H125.945V0.976562H132.133ZM148.023 11.6406L136.984 24.0391L131.008 30.1094L129.039 25.3047L133.656 19.4922L140.547 11.6406H148.023ZM141.695 37L133.844 25.1875L137.969 21.1797L148.867 37H141.695Z" fill="url(#paint0_linear_1_6)"/>
<defs>
<linearGradient id="paint0_linear_1_6" x1="-2" y1="22.2923" x2="149" y2="21.7486" gradientUnits="userSpaceOnUse">
<stop stop-color="#367AFF"/>
<stop offset="1" stop-color="#25D661"/>
</linearGradient>
</defs>
</svg>
