<?xml version="1.0" encoding="iso-8859-1"?>
<!-- Generator: Adobe Illustrator 19.0.0, SVG Export Plug-In . SVG Version: 6.00 Build 0)  -->
<svg version="1.1" id="Layer_1" xmlns="http://www.w3.org/2000/svg" xmlns:xlink="http://www.w3.org/1999/xlink" x="0px" y="0px"
	 viewBox="0 0 503.608 503.608" style="enable-background:new 0 0 503.608 503.608;" xml:space="preserve">
<g>
	<g>
		<g>
			<path d="M335.739,260.197H167.87c-4.636,0-8.393,3.758-8.393,8.393s3.758,8.393,8.393,8.393h20.071
				c-2.111,4.995-3.284,10.753-3.284,16.787c0,17.993,10.39,33.574,25.18,33.574s25.18-15.581,25.18-33.574
				c0-6.034-1.173-11.792-3.284-16.787h104.005c4.636,0,8.393-3.758,8.393-8.393S340.374,260.197,335.739,260.197z M218.23,293.771
				c0,9.817-4.648,16.787-8.393,16.787c-3.746,0-8.393-6.97-8.393-16.787c0-9.817,4.648-16.787,8.393-16.787
				C213.583,276.984,218.23,283.954,218.23,293.771z"/>
			<path d="M502.838,396.932l-7.63-45.786c-0.674-4.047-4.176-7.014-8.279-7.014h-7.722l-17.523-112.946
				c-4.153-26.744-25.903-46.531-51.63-46.531h-16.905c-14.803-78.423-64.036-142.689-140.296-142.689
				c-76.26,0-125.493,64.265-140.296,142.689H93.554c-25.727,0-47.476,19.786-51.629,46.529L24.402,344.131h-7.724
				c-4.103,0-7.605,2.966-8.279,7.014l-7.63,45.786c-5.645,33.872,20.475,64.708,54.813,64.708h45.14
				c4.636,0,8.393-3.758,8.393-8.393h285.376v0.001c0,4.636,3.758,8.393,8.393,8.393h45.14
				C482.363,461.64,508.483,430.804,502.838,396.932z M252.853,58.754c65.225,0,109.01,55.923,123.193,125.902h-17.505
				c-3.786-15.872-9.323-32.092-17.051-47.361c-20.535-40.584-50.593-61.754-88.637-61.754c-38.043,0-68.102,21.17-88.637,61.755
				c-7.727,15.268-13.265,31.487-17.051,47.36H129.66C143.843,114.677,187.628,58.754,252.853,58.754z M341.242,184.656H164.465
				c3.461-13.441,8.286-27.049,14.729-39.78c17.84-35.258,42.389-52.548,73.659-52.548c31.27,0,55.819,17.289,73.658,52.547
				C332.956,157.607,337.781,171.215,341.242,184.656z M55.582,444.853c-23.964,0-42.194-21.522-38.254-45.162l6.461-38.773h7.805
				h19.232c2.85,25.612,18.603,47.886,41.503,59.249v24.686H55.582z M109.116,436.459v-21.714c0-3.419-2.074-6.496-5.243-7.78
				c-22.019-8.917-36.724-30.309-36.724-54.441c0-4.636-3.758-8.393-8.393-8.393H41.39L58.513,233.76
				c2.914-18.765,17.811-32.317,35.041-32.317h26.053h34.279H351.82h34.279h23.955c17.23,0,32.127,13.552,35.041,32.319
				l17.123,110.37h-17.365c-2.318,0-4.417,0.94-5.935,2.459c-1.519,1.519-2.459,3.617-2.459,5.935
				c0,15.602-6.153,30.053-16.45,40.734c-5.629,5.839-12.492,10.555-20.274,13.706c-1.188,0.481-2.223,1.215-3.052,2.124
				c-1.382,1.515-2.192,3.519-2.192,5.656v21.713H109.116z M448.025,444.853H411.28c0,0,0-0.001,0-0.001v-24.685
				c6.978-3.463,13.288-7.944,18.777-13.219c12.521-12.034,20.744-28.223,22.726-46.029h27.036l6.461,38.772
				C490.219,423.332,471.989,444.853,448.025,444.853z"/>
		</g>
	</g>
</g>
<g>
</g>
<g>
</g>
<g>
</g>
<g>
</g>
<g>
</g>
<g>
</g>
<g>
</g>
<g>
</g>
<g>
</g>
<g>
</g>
<g>
</g>
<g>
</g>
<g>
</g>
<g>
</g>
<g>
</g>
</svg>
