<svg width="1920" height="1818" viewBox="0 0 1920 1818" fill="none" xmlns="http://www.w3.org/2000/svg">
<mask id="mask0_126_680" style="mask-type:alpha" maskUnits="userSpaceOnUse" x="-347" y="-1175" width="2850" height="2993">
<rect x="-347" y="-1175" width="2850" height="2993" fill="#77D18F"/>
</mask>
<g mask="url(#mask0_126_680)">
<path d="M1740.09 1005.53L1687.54 1201.67H1704.79L1753.7 1019.14L1740.09 1005.53Z" fill="#98E4A0" fill-opacity="0.38"/>
<path d="M1862.57 1128L1858.67 1124.1L1848.96 1114.39L1835.35 1100.79L1829.2 1094.64L1821.74 1087.18L1791.06 1201.67H1808.32L1830.37 1119.37L1843.98 1132.98L1825.57 1201.67H1842.83L1862.57 1128Z" fill="#98E4A0" fill-opacity="0.38"/>
<path d="M1911.7 1177.14L1903.39 1168.83L1889.78 1155.22L1882.23 1147.67L1876.17 1141.61L1871.74 1158.16L1870.45 1159.45L1871.19 1160.2L1860.08 1201.67H1877.34L1884.8 1173.81L1898.41 1187.42L1894.59 1201.67H1911.85L1917 1182.43L1911.7 1177.14Z" fill="#98E4A0" fill-opacity="0.38"/>
<path d="M1808.13 1073.57L1803.67 1069.11L1794.53 1059.96L1780.92 1046.35L1774.2 1039.64L1767.31 1032.75L1722.05 1201.67H1739.3L1775.94 1064.94L1789.54 1078.55L1756.55 1201.67H1773.81L1808.13 1073.57Z" fill="#98E4A0" fill-opacity="0.38"/>
<path d="M1751.88 993.744L1765.49 1007.35L1923.67 964.967V947.712L1751.88 993.744Z" fill="#98E4A0" fill-opacity="0.38"/>
<path d="M1887.96 1129.83L1901.57 1143.43L1923.67 1137.51V1120.26L1887.96 1129.83Z" fill="#98E4A0" fill-opacity="0.38"/>
<path d="M1787.85 1029.72L1792.7 1034.57L1806.31 1048.18L1817.32 1059.19L1819.92 1061.78L1923.67 1033.98V1016.73L1824.9 1043.19L1811.29 1029.59L1923.67 999.476V982.221L1779.09 1020.96L1787.85 1029.72Z" fill="#98E4A0" fill-opacity="0.38"/>
<path d="M1879.33 1097.63L1865.72 1084.02L1923.67 1068.49V1051.24L1833.53 1075.39L1842.95 1084.82L1847.13 1089L1860.74 1102.61L1872.42 1114.28L1874.35 1116.22L1923.67 1103V1085.75L1879.33 1097.63Z" fill="#98E4A0" fill-opacity="0.38"/>
<path d="M1915.17 1157.04L1923.67 1165.53V1154.77L1915.17 1157.04Z" fill="#98E4A0" fill-opacity="0.38"/>
<path d="M1677.74 1173.95L1659.15 1178.94L1574.31 1201.67H1638.71L1654.16 1197.53L1653.05 1201.67H1670.3L1672.75 1192.55L1677.74 1173.95Z" fill="#98E4A0" fill-opacity="0.38"/>
<path d="M1840.29 955.017L1840.24 954.969L1840.25 954.965L1799.04 913.76L1794.06 932.349L1808.11 946.395L1770.4 956.507L1790.47 881.625L1826.83 917.985L1858.87 950.032L1877.46 945.047L1863.85 931.443L1795.45 863.036L1781.84 849.428L1776.86 868.017L1751.81 961.493L1746.83 980.084L1765.42 975.099L1840.29 955.017Z" fill="#98E4A0" fill-opacity="0.38"/>
<path d="M1248.51 1157.76L1243.53 1176.35L1236.74 1201.67H1254L1257.13 1189.96L1268.84 1201.67H1292.41L1262.11 1171.37L1248.51 1157.76Z" fill="#98E4A0" fill-opacity="0.38"/>
<path d="M862.432 1201.67H869.563L863.938 1196.04L862.432 1201.67Z" fill="#98E4A0" fill-opacity="0.38"/>
<path d="M997.885 909.963L857 947.712V964.967L992.904 928.552L1215 1150.65L1201.33 1201.67H1218.58L1233.59 1145.67L997.885 909.963Z" fill="#98E4A0" fill-opacity="0.38"/>
<path d="M938.112 1133.03L857 1154.77V1165.53L857.011 1165.55L862.116 1170.65L875.724 1184.26L886.478 1195.01L889.332 1197.87L923.169 1188.8L936.036 1201.67H959.606L928.15 1170.21L894.313 1179.28L880.705 1165.67L933.131 1151.62L983.177 1201.67H1006.75L938.112 1133.03Z" fill="#98E4A0" fill-opacity="0.38"/>
<path d="M987.922 947.141L857 982.221V999.476L982.942 965.729L1177.82 1160.61L1166.82 1201.67H1184.07L1196.41 1155.63L987.922 947.141Z" fill="#98E4A0" fill-opacity="0.38"/>
<path d="M1084.87 1185.51L1027.35 1127.99L1015.56 1116.2L1003.78 1127.99L991.992 1139.77L980.207 1151.56L980.204 1151.56L991.989 1163.35L991.992 1163.34L1029.11 1200.46L1028.78 1201.67H1046.04L1047.69 1195.48L1003.78 1151.56L1015.56 1139.77L1066.28 1190.49L1063.29 1201.67H1080.55L1084.87 1185.51Z" fill="#98E4A0" fill-opacity="0.38"/>
<path d="M963.017 1040.09L1027.35 1104.42L1027.35 1104.42L1039.13 1116.2L1074.49 1080.85L1073.7 1080.06L1062.7 1069.06L977.96 984.319L857 1016.73V1033.98L972.98 1002.91L1050.92 1080.85L1039.13 1092.63L967.998 1021.5L857 1051.24V1068.49L963.017 1040.09Z" fill="#98E4A0" fill-opacity="0.38"/>
<path d="M956.636 1127.99L956.634 1127.99L968.419 1139.77L968.422 1139.77L980.207 1127.99L991.992 1116.2L1003.78 1104.42L991.992 1092.63L958.036 1058.68L857 1085.75V1103L953.055 1077.27L980.207 1104.42L968.422 1116.2L948.074 1095.85L857 1120.26V1137.51L943.093 1114.44L956.636 1127.99Z" fill="#98E4A0" fill-opacity="0.38"/>
<path d="M1159.23 1165.59L1097.27 1103.63L1085.49 1091.85L1073.7 1103.63L1061.92 1115.42L1050.13 1127.2L1050.13 1127.2L1061.91 1138.99L1061.92 1138.99L1103.46 1180.53L1097.8 1201.67H1115.05L1122.05 1175.55L1073.7 1127.2L1085.49 1115.42L1140.64 1170.57L1132.31 1201.67H1149.56L1159.23 1165.59Z" fill="#98E4A0" fill-opacity="0.38"/>
<path d="M1892.01 937.239L1923.67 928.757V911.503L1896.99 918.649L1674.9 696.556L1704.79 585H1687.54L1656.31 701.536L1892.01 937.239Z" fill="#98E4A0" fill-opacity="0.38"/>
<path d="M1862.55 742.784L1862.55 742.782L1850.77 730.996L1815.41 766.355L1816.2 767.14L1827.2 778.14L1911.94 862.883L1923.67 859.739V842.484L1916.92 844.293L1838.98 766.355L1850.77 754.569L1921.9 825.704L1923.67 825.231V803.901L1862.55 742.784Z" fill="#98E4A0" fill-opacity="0.38"/>
<path d="M1921.48 707.429L1909.69 719.213L1897.91 730.999L1886.12 742.784L1897.91 754.569L1923.67 780.331V756.76L1909.69 742.784L1921.48 730.999L1923.67 733.191V709.615L1921.48 707.427L1921.48 707.429Z" fill="#98E4A0" fill-opacity="0.38"/>
<path d="M1879.38 641.763L1923.67 686.049V662.48L1897.97 636.783L1911.85 585H1894.59L1879.38 641.763Z" fill="#98E4A0" fill-opacity="0.38"/>
<path d="M1923.67 638.909V605.273L1916.56 631.801L1923.67 638.909Z" fill="#98E4A0" fill-opacity="0.38"/>
<path d="M1730.67 681.612L1792.63 743.57L1804.41 755.355L1816.2 743.57L1827.98 731.786L1839.77 720L1839.77 719.998L1827.98 708.212L1827.98 708.215L1786.44 666.67L1808.32 585H1791.06L1767.85 671.65L1816.2 720L1804.41 731.786L1749.26 676.631L1773.81 585H1756.55L1730.67 681.612Z" fill="#98E4A0" fill-opacity="0.38"/>
<path d="M1805.02 661.688L1862.55 719.213L1874.34 730.999L1886.12 719.213L1897.91 707.429L1909.69 695.644L1909.69 695.641L1897.91 683.856L1897.91 683.859L1860.79 646.744L1877.34 585H1860.08L1842.2 651.725L1886.12 695.644L1874.34 707.429L1823.61 656.707L1842.83 585H1825.57L1805.02 661.688Z" fill="#98E4A0" fill-opacity="0.38"/>
<path d="M1901.98 900.06L1923.67 894.248V876.993L1906.96 881.471L1712.08 686.593L1739.3 585H1722.05L1693.49 691.575L1901.98 900.06Z" fill="#98E4A0" fill-opacity="0.38"/>
<path d="M1644.05 618.561L1630 604.516L1611.41 609.497L1652.62 650.701L1652.62 650.697L1652.67 650.744L1670.3 585H1653.05L1644.05 618.561Z" fill="#98E4A0" fill-opacity="0.38"/>
<path d="M1547.08 592.296L1560.69 605.904L1629.09 674.311L1642.7 687.915L1647.68 669.329L1615.64 637.283L1579.28 600.924L1638.71 585H1574.31L1565.67 587.316L1547.08 592.296Z" fill="#98E4A0" fill-opacity="0.38"/>
<path d="M1141.57 1004.89L1220.37 710.803L1206.76 697.195L1122.98 1009.87L1314.77 1201.67H1338.35L1141.57 1004.89Z" fill="#98E4A0" fill-opacity="0.38"/>
<path d="M1657.75 1148.18L1458.14 1201.67H1522.54L1671.35 1161.79L1657.75 1148.18Z" fill="#98E4A0" fill-opacity="0.38"/>
<path d="M1644.14 1134.57L1635.38 1125.81L1630.53 1120.97L1616.92 1107.36L1605.91 1096.35L1603.31 1093.75L1383.59 1152.63L1305.65 1074.69L1317.43 1062.9L1388.57 1134.04L1589.71 1080.14L1580.28 1070.72L1576.1 1066.53L1562.49 1052.93L1550.81 1041.25L1548.88 1039.32L1403.51 1078.27L1376.36 1051.12L1388.14 1039.33L1408.49 1059.68L1535.27 1025.71L1521.67 1012.1L1413.47 1041.09L1399.93 1027.55L1399.93 1027.55L1388.15 1015.76L1388.14 1015.76L1376.36 1027.55L1364.57 1039.33L1352.79 1051.12L1364.57 1062.9L1398.53 1096.86L1543.9 1057.91L1557.51 1071.51L1393.55 1115.45L1329.22 1051.12L1329.22 1051.11L1317.43 1039.33L1282.08 1074.69L1282.86 1075.47L1293.86 1086.47L1378.6 1171.22L1598.33 1112.34L1611.94 1125.95L1373.62 1189.81L1178.75 994.927L1242.6 756.608L1256.21 770.217L1197.33 989.945L1259.29 1051.9L1271.08 1063.69L1282.86 1051.9L1294.65 1040.12L1306.43 1028.33L1306.43 1028.33L1294.65 1016.55L1294.65 1016.55L1253.1 975.003L1297.03 811.041L1310.64 824.649L1271.69 970.021L1329.22 1027.55L1341 1039.33L1352.79 1027.55L1364.57 1015.76L1376.36 1003.98L1376.36 1003.97L1364.57 992.189L1364.57 992.192L1327.46 955.079L1351.47 865.473L1365.07 879.083L1346.05 950.097L1418.45 1022.5L1508.06 998.493L1499.55 989.989L1494.45 984.885L1480.84 971.277L1470.09 960.523L1467.23 957.668L1433.4 966.735L1401.81 935.155L1405.9 919.907L1434.96 948.965L1453.54 943.98L1410.88 901.317L1408.22 898.657L1397.27 887.709L1383.23 940.135L1428.41 985.324L1462.25 976.259L1475.86 989.867L1423.43 1003.91L1364.64 945.116L1383.66 874.101L1378.37 868.801L1370.06 860.492L1356.45 846.884L1348.9 839.335L1342.84 833.276L1338.41 849.828L1337.11 851.12L1337.86 851.865L1308.87 960.06L1352.79 1003.98L1341 1015.76L1290.28 965.04L1329.23 819.668L1325.33 815.769L1315.62 806.06L1302.02 792.452L1295.87 786.301L1288.41 778.844L1234.51 979.984L1282.86 1028.33L1271.08 1040.12L1215.92 984.964L1274.8 765.236L1270.33 760.772L1261.19 751.628L1247.58 738.02L1240.87 731.304L1233.97 724.411L1160.16 999.908L1361.91 1201.67H1393.75L1644.14 1134.57Z" fill="#98E4A0" fill-opacity="0.38"/>
<path d="M1531.22 601.63L1218.54 685.409L1232.15 699.018L1526.24 620.218L1748.33 842.312L1669.53 1136.4L1683.14 1150.01L1766.92 837.331L1531.22 601.63Z" fill="#98E4A0" fill-opacity="0.38"/>
<path d="M1521.26 638.807L1245.76 712.627L1254.52 721.388L1259.37 726.235L1272.98 739.843L1283.99 750.855L1286.58 753.451L1506.31 694.575L1584.25 772.514L1572.47 784.299L1501.33 713.164L1300.19 767.059L1309.62 776.483L1313.8 780.667L1327.41 794.275L1339.08 805.95L1341.02 807.883L1486.39 768.932L1513.54 796.084L1501.76 807.868L1481.41 787.522L1354.63 821.491L1368.23 835.099L1476.43 806.11L1489.97 819.654L1489.97 819.656L1501.75 831.442L1501.76 831.439L1513.54 819.654L1525.33 807.868L1537.11 796.084L1525.33 784.299L1491.37 750.343L1346 789.295L1332.39 775.686L1496.35 731.754L1560.68 796.084L1560.68 796.086L1572.46 807.871L1607.82 772.514L1607.04 771.728L1596.04 760.728L1511.29 675.986L1291.57 734.862L1277.96 721.254L1516.27 657.396L1711.15 852.275L1647.3 1090.59L1633.69 1076.98L1692.56 857.256L1630.61 795.298L1618.82 783.512L1607.04 795.298L1595.25 807.083L1583.47 818.868L1583.46 818.871L1595.25 830.656L1595.25 830.654L1636.8 872.199L1592.86 1036.16L1579.26 1022.55L1618.21 877.18L1560.68 819.654L1548.9 807.868L1537.11 819.654L1525.33 831.439L1513.54 843.224L1513.54 843.227L1525.32 855.012L1525.33 855.01L1562.44 892.123L1538.43 981.728L1524.82 968.119L1543.85 897.104L1471.45 824.699L1381.84 848.708L1390.35 857.211L1395.45 862.316L1409.06 875.924L1419.81 886.679L1422.67 889.532L1456.5 880.467L1488.08 912.047L1484 927.294L1454.94 898.236L1436.35 903.222L1479.02 945.884L1481.68 948.544L1492.63 959.492L1506.67 907.066L1461.48 861.878L1427.65 870.943L1414.04 857.335L1466.47 843.288L1525.26 902.086L1506.23 973.1L1511.53 978.4L1519.84 986.708L1533.45 1000.32L1541 1007.87L1547.06 1013.93L1551.49 997.374L1552.79 996.082L1552.04 995.336L1581.03 887.142L1537.11 843.224L1548.9 831.439L1599.62 882.162L1560.67 1027.53L1564.57 1031.43L1574.27 1041.14L1587.88 1054.75L1594.03 1060.9L1601.49 1068.36L1655.39 867.218L1607.04 818.868L1618.82 807.083L1673.97 862.236L1615.1 1081.97L1619.56 1086.43L1628.71 1095.57L1642.32 1109.18L1649.03 1115.9L1655.92 1122.79L1729.74 847.294L1521.26 638.807Z" fill="#98E4A0" fill-opacity="0.38"/>
<path d="M1032.34 895.649L1013.75 900.631L1027.35 914.239L1095.76 982.644L1109.37 996.248L1114.35 977.663L1082.3 945.616L1045.94 909.257L1120.83 889.193L1110.71 926.895L1096.67 912.851L1078.08 917.831L1119.28 959.036L1119.29 959.031L1119.33 959.077L1139.42 884.212L1144.4 865.621L1125.81 870.603L1032.34 895.649Z" fill="#98E4A0" fill-opacity="0.38"/>
<path d="M1213.5 671.751L1232.09 666.764L1306.95 646.683L1306.91 646.636L1306.91 646.632L1265.71 605.427L1260.73 624.016L1274.77 638.062L1237.07 648.174L1254 585H1236.74L1218.48 653.16L1213.5 671.751Z" fill="#98E4A0" fill-opacity="0.38"/>
<path d="M1293.49 609.651L1325.54 641.699L1344.12 636.713L1330.52 623.108L1292.41 585H1268.84L1293.49 609.651Z" fill="#98E4A0" fill-opacity="0.38"/>
<path d="M1124.41 839.849L857 911.503V928.757L1138.02 853.457L1124.41 839.849Z" fill="#98E4A0" fill-opacity="0.38"/>
<path d="M865.194 788.525L1010.57 749.573L1024.17 763.181L860.214 807.115L857 803.901V825.231L1056.37 771.809L1046.95 762.384L1042.76 758.201L1029.16 744.593L1017.48 732.917L1015.55 730.984L870.176 769.936L857 756.76V780.331L865.194 788.525Z" fill="#98E4A0" fill-opacity="0.38"/>
<path d="M875.157 751.347L1001.94 717.376L988.331 703.768L880.137 732.757L866.594 719.213L866.596 719.212L857 709.615V733.191L875.157 751.347Z" fill="#98E4A0" fill-opacity="0.38"/>
<path d="M885.119 714.168L974.723 690.16L966.22 681.656L961.115 676.552L947.507 662.944L936.753 652.189L933.898 649.335L900.062 658.401L868.481 626.82L872.567 611.573L901.625 640.632L920.209 635.647L877.547 592.984L874.886 590.323L869.563 585H862.432L857 605.273V638.909L895.081 676.989L928.917 667.924L942.525 681.532L890.099 695.58L857 662.48V686.049L885.119 714.168Z" fill="#98E4A0" fill-opacity="0.38"/>
<path d="M1102.04 817.48L1097.2 812.633L1083.59 799.025L1072.58 788.013L1069.98 785.417L857 842.484V859.739L1065 804.007L1078.61 817.615L857 876.993V894.248L1110.81 826.241L1102.04 817.48Z" fill="#98E4A0" fill-opacity="0.38"/>
<path d="M1149.81 841.672L1218.58 585H1201.33L1136.2 828.064L1149.81 841.672Z" fill="#98E4A0" fill-opacity="0.38"/>
<path d="M1081.77 773.632L1086.23 778.096L1095.37 787.24L1108.98 800.848L1115.7 807.563L1122.59 814.456L1184.07 585H1166.82L1113.96 782.259L1100.35 768.651L1149.56 585H1132.31L1081.77 773.632Z" fill="#98E4A0" fill-opacity="0.38"/>
<path d="M991.928 593.751L972.9 664.767L978.199 670.066L986.508 678.375L1000.12 691.983L1007.67 699.532L1013.73 705.592L1018.16 689.04L1019.45 687.748L1018.71 687.002L1046.04 585H1028.78L1005.1 673.394L991.489 659.786L1010.52 588.771L1006.75 585H983.176L991.928 593.751Z" fill="#98E4A0" fill-opacity="0.38"/>
<path d="M950.664 618.96L921.606 589.903L903.021 594.888L945.683 637.549L948.344 640.211L959.292 651.159L973.339 598.732L959.606 585H936.036L954.75 603.713L950.664 618.96Z" fill="#98E4A0" fill-opacity="0.38"/>
<path d="M1027.33 719.2L1031.23 723.099L1040.94 732.808L1054.55 746.416L1060.7 752.565L1068.16 760.024L1115.05 585H1097.8L1059.53 727.827L1045.92 714.217L1080.55 585H1063.29L1027.33 719.2Z" fill="#98E4A0" fill-opacity="0.38"/>
<path d="M1522.54 585H1458.14L1363.66 610.316L1338.35 585H1314.77L1358.68 628.906L1522.54 585Z" fill="#98E4A0" fill-opacity="0.38"/>
<path d="M1393.75 585H1361.91L1368.64 591.727L1393.75 585Z" fill="#98E4A0" fill-opacity="0.38"/>
<path d="M1740.09 1622.2L1687.54 1818.33H1704.79L1753.7 1635.8L1740.09 1622.2Z" fill="#98E4A0" fill-opacity="0.38"/>
<path d="M1862.57 1744.67L1858.67 1740.77L1848.96 1731.06L1835.35 1717.45L1829.2 1711.3L1821.74 1703.84L1791.06 1818.33H1808.32L1830.37 1736.04L1843.98 1749.65L1825.57 1818.33H1842.83L1862.57 1744.67Z" fill="#98E4A0" fill-opacity="0.38"/>
<path d="M1911.7 1793.8L1903.39 1785.49L1889.78 1771.89L1882.23 1764.34L1876.17 1758.28L1871.74 1774.83L1870.45 1776.12L1871.19 1776.87L1860.08 1818.33H1877.34L1884.8 1790.47L1898.41 1804.08L1894.59 1818.33H1911.85L1917 1799.1L1911.7 1793.8Z" fill="#98E4A0" fill-opacity="0.38"/>
<path d="M1808.13 1690.24L1803.67 1685.77L1794.53 1676.63L1780.92 1663.02L1774.2 1656.31L1767.31 1649.41L1722.05 1818.33H1739.3L1775.94 1681.61L1789.54 1695.22L1756.55 1818.33H1773.81L1808.13 1690.24Z" fill="#98E4A0" fill-opacity="0.38"/>
<path d="M1751.88 1610.41L1765.49 1624.02L1923.67 1581.63V1564.38L1751.88 1610.41Z" fill="#98E4A0" fill-opacity="0.38"/>
<path d="M1887.96 1746.49L1901.57 1760.1L1923.67 1754.18V1736.92L1887.96 1746.49Z" fill="#98E4A0" fill-opacity="0.38"/>
<path d="M1787.85 1646.39L1792.7 1651.23L1806.31 1664.84L1817.32 1675.86L1819.92 1678.45L1923.67 1650.65V1633.4L1824.9 1659.86L1811.29 1646.25L1923.67 1616.14V1598.89L1779.09 1637.63L1787.85 1646.39Z" fill="#98E4A0" fill-opacity="0.38"/>
<path d="M1879.33 1714.29L1865.72 1700.69L1923.67 1685.16V1667.91L1833.53 1692.06L1842.95 1701.48L1847.13 1705.67L1860.74 1719.28L1872.42 1730.95L1874.35 1732.88L1923.67 1719.67V1702.41L1879.33 1714.29Z" fill="#98E4A0" fill-opacity="0.38"/>
<path d="M1915.17 1773.71L1923.67 1782.2V1771.43L1915.17 1773.71Z" fill="#98E4A0" fill-opacity="0.38"/>
<path d="M1677.74 1790.62L1659.15 1795.6L1574.31 1818.33H1638.71L1654.16 1814.19L1653.05 1818.33H1670.3L1672.75 1809.21L1677.74 1790.62Z" fill="#98E4A0" fill-opacity="0.38"/>
<path d="M1840.29 1571.68L1840.24 1571.64L1840.25 1571.63L1799.04 1530.43L1794.06 1549.02L1808.11 1563.06L1770.4 1573.17L1790.47 1498.29L1826.83 1534.65L1858.87 1566.7L1877.46 1561.71L1863.85 1548.11L1795.45 1479.7L1781.84 1466.1L1776.86 1484.69L1751.81 1578.16L1746.83 1596.75L1765.42 1591.77L1840.29 1571.68Z" fill="#98E4A0" fill-opacity="0.38"/>
<path d="M1248.51 1774.43L1243.53 1793.02L1236.74 1818.33H1254L1257.13 1806.63L1268.84 1818.33H1292.41L1262.11 1788.04L1248.51 1774.43Z" fill="#98E4A0" fill-opacity="0.38"/>
<path d="M862.432 1818.33H869.563L863.938 1812.71L862.432 1818.33Z" fill="#98E4A0" fill-opacity="0.38"/>
<path d="M997.885 1526.63L857 1564.38V1581.63L992.904 1545.22L1215 1767.31L1201.33 1818.33H1218.58L1233.59 1762.33L997.885 1526.63Z" fill="#98E4A0" fill-opacity="0.38"/>
<path d="M938.112 1749.7L857 1771.43V1782.2L857.011 1782.21L862.116 1787.32L875.724 1800.92L886.478 1811.68L889.332 1814.53L923.169 1805.47L936.036 1818.33H959.606L928.15 1786.88L894.313 1795.94L880.705 1782.34L933.131 1768.29L983.177 1818.33H1006.75L938.112 1749.7Z" fill="#98E4A0" fill-opacity="0.38"/>
<path d="M987.922 1563.81L857 1598.89V1616.14L982.942 1582.4L1177.82 1777.27L1166.82 1818.33H1184.07L1196.41 1772.29L987.922 1563.81Z" fill="#98E4A0" fill-opacity="0.38"/>
<path d="M1084.87 1802.18L1027.35 1744.65L1015.56 1732.87L1003.78 1744.65L991.992 1756.44L980.207 1768.22L980.204 1768.23L991.989 1780.01L991.992 1780.01L1029.11 1817.12L1028.78 1818.33H1046.04L1047.69 1812.14L1003.78 1768.22L1015.56 1756.44L1066.28 1807.16L1063.29 1818.33H1080.55L1084.87 1802.18Z" fill="#98E4A0" fill-opacity="0.38"/>
<path d="M963.017 1656.75L1027.35 1721.08L1027.35 1721.09L1039.13 1732.87L1074.49 1697.51L1073.7 1696.73L1062.7 1685.73L977.96 1600.99L857 1633.4V1650.65L972.98 1619.58L1050.92 1697.51L1039.13 1709.3L967.998 1638.17L857 1667.91V1685.16L963.017 1656.75Z" fill="#98E4A0" fill-opacity="0.38"/>
<path d="M956.636 1744.65L956.634 1744.66L968.419 1756.44L968.422 1756.44L980.207 1744.65L991.992 1732.87L1003.78 1721.08L991.992 1709.3L958.036 1675.34L857 1702.41V1719.67L953.055 1693.93L980.207 1721.08L968.422 1732.87L948.074 1712.52L857 1736.92V1754.18L943.093 1731.11L956.636 1744.65Z" fill="#98E4A0" fill-opacity="0.38"/>
<path d="M1159.23 1782.26L1097.27 1720.3L1085.49 1708.51L1073.7 1720.3L1061.92 1732.08L1050.13 1743.87L1050.13 1743.87L1061.91 1755.66L1061.92 1755.65L1103.46 1797.2L1097.8 1818.33H1115.05L1122.05 1792.22L1073.7 1743.87L1085.49 1732.08L1140.64 1787.24L1132.31 1818.33H1149.56L1159.23 1782.26Z" fill="#98E4A0" fill-opacity="0.38"/>
<path d="M1892.01 1553.91L1923.67 1545.42V1528.17L1896.99 1535.32L1674.9 1313.22L1704.79 1201.67H1687.54L1656.31 1318.2L1892.01 1553.91Z" fill="#98E4A0" fill-opacity="0.38"/>
<path d="M1862.55 1359.45L1862.55 1359.45L1850.77 1347.66L1815.41 1383.02L1816.2 1383.81L1827.2 1394.81L1911.94 1479.55L1923.67 1476.41V1459.15L1916.92 1460.96L1838.98 1383.02L1850.77 1371.24L1921.9 1442.37L1923.67 1441.9V1420.57L1862.55 1359.45Z" fill="#98E4A0" fill-opacity="0.38"/>
<path d="M1921.48 1324.1L1909.69 1335.88L1897.91 1347.67L1886.12 1359.45L1897.91 1371.24L1923.67 1397V1373.43L1909.69 1359.45L1921.48 1347.67L1923.67 1349.86V1326.28L1921.48 1324.09L1921.48 1324.1Z" fill="#98E4A0" fill-opacity="0.38"/>
<path d="M1879.38 1258.43L1923.67 1302.72V1279.15L1897.97 1253.45L1911.85 1201.67H1894.59L1879.38 1258.43Z" fill="#98E4A0" fill-opacity="0.38"/>
<path d="M1923.67 1255.58V1221.94L1916.56 1248.47L1923.67 1255.58Z" fill="#98E4A0" fill-opacity="0.38"/>
<path d="M1730.67 1298.28L1792.63 1360.24L1804.41 1372.02L1816.2 1360.24L1827.98 1348.45L1839.77 1336.67L1839.77 1336.66L1827.98 1324.88L1827.98 1324.88L1786.44 1283.34L1808.32 1201.67H1791.06L1767.85 1288.32L1816.2 1336.67L1804.41 1348.45L1749.26 1293.3L1773.81 1201.67H1756.55L1730.67 1298.28Z" fill="#98E4A0" fill-opacity="0.38"/>
<path d="M1805.02 1278.35L1862.55 1335.88L1874.34 1347.67L1886.12 1335.88L1897.91 1324.1L1909.69 1312.31L1909.69 1312.31L1897.91 1300.52L1897.91 1300.53L1860.79 1263.41L1877.34 1201.67H1860.08L1842.2 1268.39L1886.12 1312.31L1874.34 1324.1L1823.61 1273.37L1842.83 1201.67H1825.57L1805.02 1278.35Z" fill="#98E4A0" fill-opacity="0.38"/>
<path d="M1901.98 1516.73L1923.67 1510.91V1493.66L1906.96 1498.14L1712.08 1303.26L1739.3 1201.67H1722.05L1693.49 1308.24L1901.98 1516.73Z" fill="#98E4A0" fill-opacity="0.38"/>
<path d="M1644.05 1235.23L1630 1221.18L1611.41 1226.17L1652.62 1267.37L1652.62 1267.36L1652.67 1267.41L1670.3 1201.67H1653.05L1644.05 1235.23Z" fill="#98E4A0" fill-opacity="0.38"/>
<path d="M1547.08 1208.96L1560.69 1222.57L1629.09 1290.98L1642.7 1304.58L1647.68 1286L1615.64 1253.95L1579.28 1217.59L1638.71 1201.67H1574.31L1565.67 1203.98L1547.08 1208.96Z" fill="#98E4A0" fill-opacity="0.38"/>
<path d="M1141.57 1621.56L1220.37 1327.47L1206.76 1313.86L1122.98 1626.54L1314.77 1818.33H1338.35L1141.57 1621.56Z" fill="#98E4A0" fill-opacity="0.38"/>
<path d="M1657.75 1764.85L1458.14 1818.33H1522.54L1671.35 1778.46L1657.75 1764.85Z" fill="#98E4A0" fill-opacity="0.38"/>
<path d="M1644.14 1751.24L1635.38 1742.48L1630.53 1737.63L1616.92 1724.03L1605.91 1713.01L1603.31 1710.42L1383.59 1769.29L1305.65 1691.35L1317.43 1679.57L1388.57 1750.7L1589.71 1696.81L1580.28 1687.39L1576.1 1683.2L1562.49 1669.59L1550.81 1657.92L1548.88 1655.99L1403.51 1694.94L1376.36 1667.79L1388.14 1656L1408.49 1676.35L1535.27 1642.38L1521.67 1628.77L1413.47 1657.76L1399.93 1644.21L1399.93 1644.21L1388.15 1632.43L1388.14 1632.43L1376.36 1644.21L1364.57 1656L1352.79 1667.79L1364.57 1679.57L1398.53 1713.53L1543.9 1674.57L1557.51 1688.18L1393.55 1732.11L1329.22 1667.79L1329.22 1667.78L1317.43 1656L1282.08 1691.35L1282.86 1692.14L1293.86 1703.14L1378.6 1787.88L1598.33 1729.01L1611.94 1742.61L1373.62 1806.47L1178.75 1611.59L1242.6 1373.28L1256.21 1386.88L1197.33 1606.61L1259.29 1668.57L1271.08 1680.36L1282.86 1668.57L1294.65 1656.79L1306.43 1645L1306.43 1645L1294.65 1633.21L1294.65 1633.21L1253.1 1591.67L1297.03 1427.71L1310.64 1441.32L1271.69 1586.69L1329.22 1644.21L1341 1656L1352.79 1644.21L1364.57 1632.43L1376.36 1620.64L1376.36 1620.64L1364.57 1608.86L1364.57 1608.86L1327.46 1571.75L1351.47 1482.14L1365.07 1495.75L1346.05 1566.76L1418.45 1639.17L1508.06 1615.16L1499.55 1606.66L1494.45 1601.55L1480.84 1587.94L1470.09 1577.19L1467.23 1574.34L1433.4 1583.4L1401.81 1551.82L1405.9 1536.57L1434.96 1565.63L1453.54 1560.65L1410.88 1517.99L1408.22 1515.32L1397.27 1504.38L1383.23 1556.8L1428.41 1601.99L1462.25 1592.93L1475.86 1606.53L1423.43 1620.58L1364.64 1561.78L1383.66 1490.77L1378.37 1485.47L1370.06 1477.16L1356.45 1463.55L1348.9 1456L1342.84 1449.94L1338.41 1466.5L1337.11 1467.79L1337.86 1468.53L1308.87 1576.73L1352.79 1620.64L1341 1632.43L1290.28 1581.71L1329.23 1436.34L1325.33 1432.44L1315.62 1422.73L1302.02 1409.12L1295.87 1402.97L1288.41 1395.51L1234.51 1596.65L1282.86 1645L1271.08 1656.79L1215.92 1601.63L1274.8 1381.9L1270.33 1377.44L1261.19 1368.29L1247.58 1354.69L1240.87 1347.97L1233.97 1341.08L1160.16 1616.57L1361.91 1818.33H1393.75L1644.14 1751.24Z" fill="#98E4A0" fill-opacity="0.38"/>
<path d="M1531.22 1218.3L1218.54 1302.08L1232.15 1315.69L1526.24 1236.89L1748.33 1458.98L1669.53 1753.07L1683.14 1766.67L1766.92 1454L1531.22 1218.3Z" fill="#98E4A0" fill-opacity="0.38"/>
<path d="M1521.26 1255.47L1245.76 1329.29L1254.52 1338.05L1259.37 1342.9L1272.98 1356.51L1283.99 1367.52L1286.58 1370.12L1506.31 1311.24L1584.25 1389.18L1572.47 1400.97L1501.33 1329.83L1300.19 1383.73L1309.62 1393.15L1313.8 1397.33L1327.41 1410.94L1339.08 1422.62L1341.02 1424.55L1486.39 1385.6L1513.54 1412.75L1501.76 1424.54L1481.41 1404.19L1354.63 1438.16L1368.23 1451.77L1476.43 1422.78L1489.97 1436.32L1489.97 1436.32L1501.75 1448.11L1501.76 1448.11L1513.54 1436.32L1525.33 1424.54L1537.11 1412.75L1525.33 1400.97L1491.37 1367.01L1346 1405.96L1332.39 1392.35L1496.35 1348.42L1560.68 1412.75L1560.68 1412.75L1572.46 1424.54L1607.82 1389.18L1607.04 1388.39L1596.04 1377.39L1511.29 1292.65L1291.57 1351.53L1277.96 1337.92L1516.27 1274.06L1711.15 1468.94L1647.3 1707.26L1633.69 1693.65L1692.56 1473.92L1630.61 1411.97L1618.82 1400.18L1607.04 1411.97L1595.25 1423.75L1583.47 1435.53L1583.46 1435.54L1595.25 1447.32L1595.25 1447.32L1636.8 1488.87L1592.86 1652.83L1579.26 1639.22L1618.21 1493.85L1560.68 1436.32L1548.9 1424.54L1537.11 1436.32L1525.33 1448.11L1513.54 1459.89L1513.54 1459.89L1525.32 1471.68L1525.33 1471.68L1562.44 1508.79L1538.43 1598.39L1524.82 1584.79L1543.85 1513.77L1471.45 1441.37L1381.84 1465.37L1390.35 1473.88L1395.45 1478.98L1409.06 1492.59L1419.81 1503.35L1422.67 1506.2L1456.5 1497.13L1488.08 1528.71L1484 1543.96L1454.94 1514.9L1436.35 1519.89L1479.02 1562.55L1481.68 1565.21L1492.63 1576.16L1506.67 1523.73L1461.48 1478.55L1427.65 1487.61L1414.04 1474L1466.47 1459.96L1525.26 1518.75L1506.23 1589.77L1511.53 1595.07L1519.84 1603.38L1533.45 1616.98L1541 1624.53L1547.06 1630.59L1551.49 1614.04L1552.79 1612.75L1552.04 1612L1581.03 1503.81L1537.11 1459.89L1548.9 1448.11L1599.62 1498.83L1560.67 1644.2L1564.57 1648.1L1574.27 1657.81L1587.88 1671.42L1594.03 1677.57L1601.49 1685.02L1655.39 1483.89L1607.04 1435.53L1618.82 1423.75L1673.97 1478.9L1615.1 1698.63L1619.56 1703.1L1628.71 1712.24L1642.32 1725.85L1649.03 1732.56L1655.92 1739.46L1729.74 1463.96L1521.26 1255.47Z" fill="#98E4A0" fill-opacity="0.38"/>
<path d="M1032.34 1512.32L1013.75 1517.3L1027.35 1530.91L1095.76 1599.31L1109.37 1612.92L1114.35 1594.33L1082.3 1562.28L1045.94 1525.92L1120.83 1505.86L1110.71 1543.56L1096.67 1529.52L1078.08 1534.5L1119.28 1575.7L1119.29 1575.7L1119.33 1575.75L1139.42 1500.88L1144.4 1482.29L1125.81 1487.27L1032.34 1512.32Z" fill="#98E4A0" fill-opacity="0.38"/>
<path d="M1213.5 1288.42L1232.09 1283.43L1306.95 1263.35L1306.91 1263.3L1306.91 1263.3L1265.71 1222.09L1260.73 1240.68L1274.77 1254.73L1237.07 1264.84L1254 1201.67H1236.74L1218.48 1269.83L1213.5 1288.42Z" fill="#98E4A0" fill-opacity="0.38"/>
<path d="M1293.49 1226.32L1325.54 1258.37L1344.12 1253.38L1330.52 1239.78L1292.41 1201.67H1268.84L1293.49 1226.32Z" fill="#98E4A0" fill-opacity="0.38"/>
<path d="M1124.41 1456.52L857 1528.17V1545.42L1138.02 1470.13L1124.41 1456.52Z" fill="#98E4A0" fill-opacity="0.38"/>
<path d="M865.194 1405.19L1010.57 1366.24L1024.17 1379.85L860.214 1423.78L857 1420.57V1441.9L1056.37 1388.48L1046.95 1379.05L1042.76 1374.87L1029.16 1361.26L1017.48 1349.59L1015.55 1347.65L870.176 1386.6L857 1373.43V1397L865.194 1405.19Z" fill="#98E4A0" fill-opacity="0.38"/>
<path d="M875.157 1368.01L1001.94 1334.04L988.331 1320.44L880.137 1349.43L866.594 1335.88L866.596 1335.88L857 1326.28V1349.86L875.157 1368.01Z" fill="#98E4A0" fill-opacity="0.38"/>
<path d="M885.119 1330.84L974.723 1306.83L966.22 1298.32L961.115 1293.22L947.507 1279.61L936.753 1268.86L933.898 1266L900.062 1275.07L868.481 1243.49L872.567 1228.24L901.625 1257.3L920.209 1252.31L877.547 1209.65L874.886 1206.99L869.563 1201.67H862.432L857 1221.94V1255.58L895.081 1293.66L928.917 1284.59L942.525 1298.2L890.099 1312.25L857 1279.15V1302.72L885.119 1330.84Z" fill="#98E4A0" fill-opacity="0.38"/>
<path d="M1102.04 1434.15L1097.2 1429.3L1083.59 1415.69L1072.58 1404.68L1069.98 1402.08L857 1459.15V1476.41L1065 1420.67L1078.61 1434.28L857 1493.66V1510.91L1110.81 1442.91L1102.04 1434.15Z" fill="#98E4A0" fill-opacity="0.38"/>
<path d="M1149.81 1458.34L1218.58 1201.67H1201.33L1136.2 1444.73L1149.81 1458.34Z" fill="#98E4A0" fill-opacity="0.38"/>
<path d="M1081.77 1390.3L1086.23 1394.76L1095.37 1403.91L1108.98 1417.52L1115.7 1424.23L1122.59 1431.12L1184.07 1201.67H1166.82L1113.96 1398.93L1100.35 1385.32L1149.56 1201.67H1132.31L1081.77 1390.3Z" fill="#98E4A0" fill-opacity="0.38"/>
<path d="M991.928 1210.42L972.9 1281.43L978.199 1286.73L986.508 1295.04L1000.12 1308.65L1007.67 1316.2L1013.73 1322.26L1018.16 1305.71L1019.45 1304.41L1018.71 1303.67L1046.04 1201.67H1028.78L1005.1 1290.06L991.489 1276.45L1010.52 1205.44L1006.75 1201.67H983.176L991.928 1210.42Z" fill="#98E4A0" fill-opacity="0.38"/>
<path d="M950.664 1235.63L921.606 1206.57L903.021 1211.55L945.683 1254.22L948.344 1256.88L959.292 1267.83L973.339 1215.4L959.606 1201.67H936.036L954.75 1220.38L950.664 1235.63Z" fill="#98E4A0" fill-opacity="0.38"/>
<path d="M1027.33 1335.87L1031.23 1339.77L1040.94 1349.47L1054.55 1363.08L1060.7 1369.23L1068.16 1376.69L1115.05 1201.67H1097.8L1059.53 1344.49L1045.92 1330.89L1080.55 1201.67H1063.29L1027.33 1335.87Z" fill="#98E4A0" fill-opacity="0.38"/>
<path d="M1522.54 1201.67H1458.14L1363.66 1226.98L1338.35 1201.67H1314.77L1358.68 1245.57L1522.54 1201.67Z" fill="#98E4A0" fill-opacity="0.38"/>
<path d="M1393.75 1201.67H1361.91L1368.64 1208.39L1393.75 1201.67Z" fill="#98E4A0" fill-opacity="0.38"/>
<path d="M673.092 1005.53L620.537 1201.67H637.792L686.7 1019.14L673.092 1005.53Z" fill="#98E4A0" fill-opacity="0.38"/>
<path d="M795.566 1128L791.666 1124.1L781.958 1114.39L768.35 1100.79L762.199 1094.64L754.742 1087.18L724.064 1201.67H741.319L763.368 1119.37L776.976 1132.98L758.574 1201.67H775.827L795.566 1128Z" fill="#98E4A0" fill-opacity="0.38"/>
<path d="M844.698 1177.14L836.389 1168.83L822.781 1155.22L815.232 1147.67L809.173 1141.61L804.738 1158.16L803.446 1159.45L804.192 1160.2L793.081 1201.67H810.336L817.801 1173.81L831.409 1187.42L827.59 1201.67H844.845L849.997 1182.43L844.698 1177.14Z" fill="#98E4A0" fill-opacity="0.38"/>
<path d="M741.133 1073.57L736.669 1069.11L727.525 1059.96L713.916 1046.35L707.201 1039.64L700.308 1032.75L655.045 1201.67H672.3L708.936 1064.94L722.544 1078.55L689.554 1201.67H706.809L741.133 1073.57Z" fill="#98E4A0" fill-opacity="0.38"/>
<path d="M684.877 993.744L698.485 1007.35L856.668 964.967V947.712L684.877 993.744Z" fill="#98E4A0" fill-opacity="0.38"/>
<path d="M820.959 1129.83L834.567 1143.43L856.668 1137.51V1120.26L820.959 1129.83Z" fill="#98E4A0" fill-opacity="0.38"/>
<path d="M720.855 1029.72L725.702 1034.57L739.31 1048.18L750.323 1059.19L752.918 1061.78L856.668 1033.98V1016.73L757.899 1043.19L744.291 1029.59L856.668 999.476V982.221L712.094 1020.96L720.855 1029.72Z" fill="#98E4A0" fill-opacity="0.38"/>
<path d="M812.332 1097.63L798.724 1084.02L856.668 1068.49V1051.24L766.526 1075.39L775.95 1084.82L780.134 1089L793.742 1102.61L805.417 1114.28L807.35 1116.22L856.668 1103V1085.75L812.332 1097.63Z" fill="#98E4A0" fill-opacity="0.38"/>
<path d="M848.175 1157.04L856.668 1165.53V1154.77L848.175 1157.04Z" fill="#98E4A0" fill-opacity="0.38"/>
<path d="M610.736 1173.95L592.145 1178.94L507.311 1201.67H571.705L587.159 1197.53L586.048 1201.67H603.304L605.751 1192.55L610.736 1173.95Z" fill="#98E4A0" fill-opacity="0.38"/>
<path d="M773.288 955.017L773.242 954.969L773.246 954.965L732.042 913.76L727.06 932.349L741.106 946.395L703.403 956.507L723.467 881.625L759.827 917.985L791.874 950.032L810.459 945.047L796.854 931.443L728.448 863.036L714.84 849.428L709.859 868.017L684.812 961.493L679.831 980.084L698.422 975.099L773.288 955.017Z" fill="#98E4A0" fill-opacity="0.38"/>
<path d="M181.507 1157.76L176.525 1176.35L169.741 1201.67H186.996L190.133 1189.96L201.841 1201.67H225.412L195.115 1171.37L181.507 1157.76Z" fill="#98E4A0" fill-opacity="0.38"/>
<path d="M-69.1147 909.963L-210 947.712V964.967L-74.096 928.552L147.997 1150.65L134.327 1201.67H151.581L166.587 1145.67L-69.1147 909.963Z" fill="#98E4A0" fill-opacity="0.38"/>
<path d="M-79.0776 947.141L-210 982.221V999.476L-84.0583 965.729L110.82 1160.61L99.8173 1201.67H117.072L129.409 1155.63L-79.0776 947.141Z" fill="#98E4A0" fill-opacity="0.38"/>
<path d="M17.8733 1185.51L-39.652 1127.99L-51.4374 1116.2L-63.2227 1127.99L-75.008 1139.77L-86.7932 1151.56L-86.7959 1151.56L-75.0107 1163.35L-75.008 1163.34L-37.8934 1200.46L-38.2187 1201.67H-20.964L-19.3054 1195.48L-63.2227 1151.56L-51.4374 1139.77L-0.716034 1190.49L-3.70937 1201.67H13.5453L17.8733 1185.51Z" fill="#98E4A0" fill-opacity="0.38"/>
<path d="M-103.983 1040.09L-39.652 1104.42L-39.6547 1104.42L-27.8694 1116.2L7.48799 1080.85L6.70265 1080.06L-4.29735 1069.06L-89.0396 984.319L-210 1016.73V1033.98L-94.0203 1002.91L-16.0827 1080.85L-27.868 1092.63L-99.0016 1021.5L-210 1051.24V1068.49L-103.983 1040.09Z" fill="#98E4A0" fill-opacity="0.38"/>
<path d="M92.2302 1165.59L30.2716 1103.63L18.4876 1091.85L6.70224 1103.63L-5.08309 1115.42L-16.8684 1127.2L-16.8711 1127.2L-5.08576 1138.99L-5.08309 1138.99L36.4622 1180.53L30.7996 1201.67H48.0542L55.0516 1175.55L6.70224 1127.2L18.4876 1115.42L73.6409 1170.57L65.3089 1201.67H82.5622L92.2302 1165.59Z" fill="#98E4A0" fill-opacity="0.38"/>
<path d="M825.013 937.239L856.668 928.757V911.503L829.995 918.649L607.9 696.556L637.792 585H620.537L589.311 701.536L825.013 937.239Z" fill="#98E4A0" fill-opacity="0.38"/>
<path d="M795.55 742.784L795.553 742.782L783.767 730.996L748.41 766.355L749.196 767.14L760.196 778.14L844.937 862.883L856.667 859.739V842.484L849.918 844.293L771.979 766.355L783.765 754.569L854.899 825.704L856.667 825.231V803.901L795.55 742.784Z" fill="#98E4A0" fill-opacity="0.38"/>
<path d="M854.476 707.429L842.69 719.213L830.906 730.999L819.121 742.784L830.906 754.569L856.668 780.331V756.76L842.69 742.784L854.476 730.999L856.668 733.191V709.615L854.478 707.427L854.476 707.429Z" fill="#98E4A0" fill-opacity="0.38"/>
<path d="M812.381 641.763L856.668 686.049V662.48L830.97 636.783L844.845 585H827.59L812.381 641.763Z" fill="#98E4A0" fill-opacity="0.38"/>
<path d="M856.668 638.909V605.273L849.561 631.801L856.668 638.909Z" fill="#98E4A0" fill-opacity="0.38"/>
<path d="M663.668 681.612L725.625 743.57L737.411 755.355L749.196 743.57L760.981 731.786L772.767 720L772.769 719.998L760.984 708.212L760.981 708.215L719.436 666.67L741.319 585H724.064L700.847 671.65L749.196 720L737.411 731.786L682.257 676.631L706.809 585H689.555L663.668 681.612Z" fill="#98E4A0" fill-opacity="0.38"/>
<path d="M738.024 661.688L795.551 719.213L807.336 730.999L819.122 719.213L830.907 707.429L842.691 695.644L842.694 695.641L830.91 683.856L830.907 683.859L793.792 646.744L810.336 585H793.082L775.203 651.725L819.122 695.644L807.336 707.429L756.614 656.707L775.827 585H758.574L738.024 661.688Z" fill="#98E4A0" fill-opacity="0.38"/>
<path d="M834.976 900.06L856.668 894.248V876.993L839.957 881.471L645.079 686.593L672.3 585H655.045L626.489 691.575L834.976 900.06Z" fill="#98E4A0" fill-opacity="0.38"/>
<path d="M577.046 618.561L563.002 604.516L544.413 609.497L585.617 650.701L585.621 650.697L585.669 650.744L603.304 585H586.048L577.046 618.561Z" fill="#98E4A0" fill-opacity="0.38"/>
<path d="M480.08 592.296L493.688 605.904L562.095 674.311L575.699 687.915L580.684 669.329L548.637 637.283L512.277 600.924L571.705 585H507.311L498.669 587.316L480.08 592.296Z" fill="#98E4A0" fill-opacity="0.38"/>
<path d="M74.5669 1004.89L153.367 710.803L139.759 697.195L55.9775 1009.87L247.775 1201.67H271.346L74.5669 1004.89Z" fill="#98E4A0" fill-opacity="0.38"/>
<path d="M590.747 1148.18L391.142 1201.67H455.536L604.355 1161.79L590.747 1148.18Z" fill="#98E4A0" fill-opacity="0.38"/>
<path d="M577.139 1134.57L568.378 1125.81L563.531 1120.97L549.923 1107.36L538.911 1096.35L536.315 1093.75L316.586 1152.63L238.647 1074.69L250.432 1062.9L321.567 1134.04L522.706 1080.14L513.282 1070.72L509.098 1066.53L495.49 1052.93L483.815 1041.25L481.882 1039.32L336.51 1078.27L309.358 1051.12L321.143 1039.33L341.491 1059.68L468.274 1025.71L454.666 1012.1L346.472 1041.09L332.928 1027.55L332.931 1027.55L321.146 1015.76L321.143 1015.76L309.358 1027.55L297.572 1039.33L285.787 1051.12L297.572 1062.9L331.528 1096.86L476.9 1057.91L490.508 1071.51L326.547 1115.45L262.218 1051.12L262.22 1051.11L250.435 1039.33L215.076 1074.69L215.863 1075.47L226.862 1086.47L311.604 1171.22L531.334 1112.34L544.942 1125.95L306.623 1189.81L111.746 994.927L175.602 756.608L189.21 770.217L130.335 989.945L192.292 1051.9L204.078 1063.69L215.863 1051.9L227.647 1040.12L239.432 1028.33L239.435 1028.33L227.65 1016.55L227.647 1016.55L186.102 975.003L230.035 811.041L243.643 824.649L204.691 970.021L262.218 1027.55L274.003 1039.33L285.787 1027.55L297.572 1015.76L309.358 1003.98L309.36 1003.97L297.575 992.189L297.572 992.192L260.459 955.079L284.467 865.473L298.075 879.083L279.048 950.097L351.452 1022.5L441.058 998.493L432.554 989.989L427.45 984.885L413.842 971.277L403.087 960.523L400.232 957.668L366.396 966.735L334.815 935.155L338.9 919.907L367.959 948.965L386.543 943.98L343.882 901.317L341.22 898.657L330.272 887.709L316.227 940.135L361.415 985.324L395.251 976.259L408.86 989.867L356.434 1003.91L297.638 945.116L316.664 874.101L311.366 868.801L303.056 860.492L289.448 846.884L281.899 839.335L275.84 833.276L271.406 849.828L270.114 851.12L270.859 851.865L241.87 960.06L285.787 1003.98L274.003 1015.76L223.28 965.04L262.232 819.668L258.332 815.769L248.624 806.06L235.016 792.452L228.866 786.301L221.407 778.844L167.512 979.984L215.863 1028.33L204.078 1040.12L148.923 984.964L207.799 765.236L203.335 760.772L194.191 751.628L180.583 738.02L173.868 731.304L166.975 724.411L93.1562 999.908L294.915 1201.67H326.747L577.139 1134.57Z" fill="#98E4A0" fill-opacity="0.38"/>
<path d="M464.219 601.63L151.544 685.409L165.152 699.018L459.237 620.218L681.332 842.312L602.532 1136.4L616.14 1150.01L699.921 837.331L464.219 601.63Z" fill="#98E4A0" fill-opacity="0.38"/>
<path d="M454.256 638.807L178.76 712.627L187.521 721.388L192.368 726.235L205.976 739.843L216.988 750.855L219.584 753.451L439.313 694.575L517.252 772.514L505.466 784.299L434.332 713.164L233.192 767.059L242.617 776.483L246.8 780.667L260.408 794.275L272.084 805.95L274.017 807.883L419.389 768.932L446.541 796.084L434.756 807.868L414.408 787.522L287.625 821.491L301.233 835.099L409.426 806.11L422.97 819.654L422.968 819.656L434.753 831.442L434.756 831.439L446.541 819.654L458.325 807.868L470.11 796.084L458.325 784.299L424.37 750.343L278.997 789.295L265.389 775.686L429.35 731.754L493.681 796.084L493.678 796.086L505.464 807.871L540.821 772.514L540.036 771.728L529.037 760.728L444.294 675.986L224.565 734.862L210.957 721.254L449.274 657.396L644.153 852.275L580.296 1090.59L566.688 1076.98L625.564 857.256L563.606 795.298L551.821 783.512L540.036 795.298L528.25 807.083L516.465 818.868L516.464 818.871L528.248 830.656L528.25 830.654L569.796 872.199L525.864 1036.16L512.256 1022.55L551.208 877.18L493.681 819.654L481.896 807.868L470.11 819.654L458.325 831.439L446.541 843.224L446.538 843.227L458.324 855.012L458.325 855.01L495.44 892.123L471.43 981.728L457.822 968.119L476.85 897.104L404.445 824.699L314.841 848.708L323.345 857.211L328.449 862.316L342.057 875.924L352.812 886.679L355.666 889.532L389.502 880.467L421.082 912.047L416.997 927.294L387.94 898.236L369.354 903.222L412.017 945.884L414.677 948.544L425.625 959.492L439.672 907.066L394.484 861.878L360.646 870.943L347.038 857.335L399.465 843.288L458.261 902.086L439.234 973.1L444.533 978.4L452.842 986.708L466.45 1000.32L474 1007.87L480.058 1013.93L484.493 997.374L485.785 996.082L485.04 995.336L514.029 887.142L470.11 843.224L481.896 831.439L532.618 882.162L493.666 1027.53L497.566 1031.43L507.274 1041.14L520.882 1054.75L527.033 1060.9L534.49 1068.36L588.385 867.218L540.036 818.868L551.821 807.083L606.974 862.236L548.098 1081.97L552.562 1086.43L561.706 1095.57L575.316 1109.18L582.03 1115.9L588.924 1122.79L662.742 847.294L454.256 638.807Z" fill="#98E4A0" fill-opacity="0.38"/>
<path d="M-34.6636 895.649L-53.2529 900.631L-39.6449 914.239L28.7604 982.644L42.3657 996.248L47.3511 977.663L15.3044 945.616L-21.0556 909.257L53.8257 889.193L43.7137 926.895L29.6684 912.851L11.0791 917.831L52.2831 959.036L52.2884 959.031L52.3351 959.077L72.4164 884.212L77.4031 865.621L58.8124 870.603L-34.6636 895.649Z" fill="#98E4A0" fill-opacity="0.38"/>
<path d="M146.497 671.751L165.088 666.764L239.954 646.683L239.906 646.636L239.912 646.632L198.708 605.427L193.726 624.016L207.77 638.062L170.069 648.174L186.996 585H169.741L151.478 653.16L146.497 671.751Z" fill="#98E4A0" fill-opacity="0.38"/>
<path d="M226.494 609.651L258.54 641.699L277.124 636.713L263.52 623.108L225.412 585H201.842L226.494 609.651Z" fill="#98E4A0" fill-opacity="0.38"/>
<path d="M57.4133 839.849L-210 911.503V928.757L71.0213 853.457L57.4133 839.849Z" fill="#98E4A0" fill-opacity="0.38"/>
<path d="M35.0426 817.48L30.196 812.633L16.588 799.025L5.57597 788.013L2.97998 785.417L-210 842.484V859.739L-2.00134 804.007L11.608 817.615L-210 876.993V894.248L43.8053 826.241L35.0426 817.48Z" fill="#98E4A0" fill-opacity="0.38"/>
<path d="M82.8066 841.672L151.581 585H134.327L69.1973 828.064L82.8066 841.672Z" fill="#98E4A0" fill-opacity="0.38"/>
<path d="M14.7656 773.632L19.2296 778.096L28.3736 787.24L41.9816 800.848L48.6963 807.563L55.5896 814.456L117.072 585H99.8176L46.963 782.259L33.355 768.651L82.563 585H65.3096L14.7656 773.632Z" fill="#98E4A0" fill-opacity="0.38"/>
<path d="M-39.667 719.2L-35.7683 723.099L-26.059 732.808L-12.451 746.416L-6.30166 752.565L1.15701 760.024L48.0543 585H30.7997L-7.46966 727.827L-21.079 714.217L13.545 585H-3.70965L-39.667 719.2Z" fill="#98E4A0" fill-opacity="0.38"/>
<path d="M455.536 585H391.141L296.661 610.316L271.345 585H247.774L291.68 628.906L455.536 585Z" fill="#98E4A0" fill-opacity="0.38"/>
<path d="M326.747 585H294.915L301.642 591.727L326.747 585Z" fill="#98E4A0" fill-opacity="0.38"/>
<path d="M673.092 1622.2L620.537 1818.33H637.792L686.7 1635.8L673.092 1622.2Z" fill="#98E4A0" fill-opacity="0.38"/>
<path d="M795.566 1744.67L791.666 1740.77L781.958 1731.06L768.35 1717.45L762.199 1711.3L754.742 1703.84L724.064 1818.33H741.319L763.368 1736.04L776.976 1749.65L758.574 1818.33H775.827L795.566 1744.67Z" fill="#98E4A0" fill-opacity="0.38"/>
<path d="M844.698 1793.8L836.389 1785.49L822.781 1771.89L815.232 1764.34L809.173 1758.28L804.738 1774.83L803.446 1776.12L804.192 1776.87L793.081 1818.33H810.336L817.801 1790.47L831.409 1804.08L827.59 1818.33H844.845L849.997 1799.1L844.698 1793.8Z" fill="#98E4A0" fill-opacity="0.38"/>
<path d="M741.133 1690.24L736.669 1685.77L727.525 1676.63L713.916 1663.02L707.201 1656.31L700.308 1649.41L655.045 1818.33H672.3L708.936 1681.61L722.544 1695.22L689.554 1818.33H706.809L741.133 1690.24Z" fill="#98E4A0" fill-opacity="0.38"/>
<path d="M684.877 1610.41L698.485 1624.02L856.668 1581.63V1564.38L684.877 1610.41Z" fill="#98E4A0" fill-opacity="0.38"/>
<path d="M820.959 1746.49L834.567 1760.1L856.668 1754.18V1736.92L820.959 1746.49Z" fill="#98E4A0" fill-opacity="0.38"/>
<path d="M720.855 1646.39L725.702 1651.23L739.31 1664.84L750.323 1675.86L752.918 1678.45L856.668 1650.65V1633.4L757.899 1659.86L744.291 1646.25L856.668 1616.14V1598.89L712.094 1637.63L720.855 1646.39Z" fill="#98E4A0" fill-opacity="0.38"/>
<path d="M812.332 1714.29L798.724 1700.69L856.668 1685.16V1667.91L766.526 1692.06L775.95 1701.48L780.134 1705.67L793.742 1719.28L805.417 1730.95L807.35 1732.88L856.668 1719.67V1702.41L812.332 1714.29Z" fill="#98E4A0" fill-opacity="0.38"/>
<path d="M848.175 1773.71L856.668 1782.2V1771.43L848.175 1773.71Z" fill="#98E4A0" fill-opacity="0.38"/>
<path d="M610.736 1790.62L592.145 1795.6L507.311 1818.33H571.705L587.159 1814.19L586.048 1818.33H603.304L605.751 1809.21L610.736 1790.62Z" fill="#98E4A0" fill-opacity="0.38"/>
<path d="M773.288 1571.68L773.242 1571.64L773.246 1571.63L732.042 1530.43L727.06 1549.02L741.106 1563.06L703.403 1573.17L723.467 1498.29L759.827 1534.65L791.874 1566.7L810.459 1561.71L796.854 1548.11L728.448 1479.7L714.84 1466.1L709.859 1484.69L684.812 1578.16L679.831 1596.75L698.422 1591.77L773.288 1571.68Z" fill="#98E4A0" fill-opacity="0.38"/>
<path d="M181.507 1774.43L176.525 1793.02L169.741 1818.33H186.996L190.133 1806.63L201.841 1818.33H225.412L195.115 1788.04L181.507 1774.43Z" fill="#98E4A0" fill-opacity="0.38"/>
<path d="M-69.1147 1526.63L-210 1564.38V1581.63L-74.096 1545.22L147.997 1767.31L134.327 1818.33H151.581L166.587 1762.33L-69.1147 1526.63Z" fill="#98E4A0" fill-opacity="0.38"/>
<path d="M-79.0776 1563.81L-210 1598.89V1616.14L-84.0583 1582.4L110.82 1777.27L99.8173 1818.33H117.072L129.409 1772.29L-79.0776 1563.81Z" fill="#98E4A0" fill-opacity="0.38"/>
<path d="M17.8733 1802.18L-39.652 1744.65L-51.4374 1732.87L-63.2227 1744.65L-75.008 1756.44L-86.7932 1768.22L-86.7959 1768.23L-75.0107 1780.01L-75.008 1780.01L-37.8934 1817.12L-38.2187 1818.33H-20.964L-19.3054 1812.14L-63.2227 1768.22L-51.4374 1756.44L-0.716034 1807.16L-3.70937 1818.33H13.5453L17.8733 1802.18Z" fill="#98E4A0" fill-opacity="0.38"/>
<path d="M-103.983 1656.75L-39.652 1721.08L-39.6547 1721.09L-27.8694 1732.87L7.48799 1697.51L6.70265 1696.73L-4.29735 1685.73L-89.0396 1600.99L-210 1633.4V1650.65L-94.0203 1619.58L-16.0827 1697.51L-27.868 1709.3L-99.0016 1638.17L-210 1667.91V1685.16L-103.983 1656.75Z" fill="#98E4A0" fill-opacity="0.38"/>
<path d="M92.2302 1782.26L30.2716 1720.3L18.4876 1708.51L6.70224 1720.3L-5.08309 1732.08L-16.8684 1743.87L-16.8711 1743.87L-5.08576 1755.66L-5.08309 1755.65L36.4622 1797.2L30.7996 1818.33H48.0542L55.0516 1792.22L6.70224 1743.87L18.4876 1732.08L73.6409 1787.24L65.3089 1818.33H82.5622L92.2302 1782.26Z" fill="#98E4A0" fill-opacity="0.38"/>
<path d="M825.013 1553.91L856.668 1545.42V1528.17L829.995 1535.32L607.9 1313.22L637.792 1201.67H620.537L589.311 1318.2L825.013 1553.91Z" fill="#98E4A0" fill-opacity="0.38"/>
<path d="M795.55 1359.45L795.553 1359.45L783.767 1347.66L748.41 1383.02L749.196 1383.81L760.196 1394.81L844.937 1479.55L856.667 1476.41V1459.15L849.918 1460.96L771.979 1383.02L783.765 1371.24L854.899 1442.37L856.667 1441.9V1420.57L795.55 1359.45Z" fill="#98E4A0" fill-opacity="0.38"/>
<path d="M854.476 1324.1L842.69 1335.88L830.906 1347.67L819.121 1359.45L830.906 1371.24L856.668 1397V1373.43L842.69 1359.45L854.476 1347.67L856.668 1349.86V1326.28L854.478 1324.09L854.476 1324.1Z" fill="#98E4A0" fill-opacity="0.38"/>
<path d="M812.381 1258.43L856.668 1302.72V1279.15L830.97 1253.45L844.845 1201.67H827.59L812.381 1258.43Z" fill="#98E4A0" fill-opacity="0.38"/>
<path d="M856.668 1255.58V1221.94L849.561 1248.47L856.668 1255.58Z" fill="#98E4A0" fill-opacity="0.38"/>
<path d="M663.668 1298.28L725.625 1360.24L737.411 1372.02L749.196 1360.24L760.981 1348.45L772.767 1336.67L772.769 1336.66L760.984 1324.88L760.981 1324.88L719.436 1283.34L741.319 1201.67H724.064L700.847 1288.32L749.196 1336.67L737.411 1348.45L682.257 1293.3L706.809 1201.67H689.555L663.668 1298.28Z" fill="#98E4A0" fill-opacity="0.38"/>
<path d="M738.024 1278.35L795.551 1335.88L807.336 1347.67L819.122 1335.88L830.907 1324.1L842.691 1312.31L842.694 1312.31L830.91 1300.52L830.907 1300.53L793.792 1263.41L810.336 1201.67H793.082L775.203 1268.39L819.122 1312.31L807.336 1324.1L756.614 1273.37L775.827 1201.67H758.574L738.024 1278.35Z" fill="#98E4A0" fill-opacity="0.38"/>
<path d="M834.976 1516.73L856.668 1510.91V1493.66L839.957 1498.14L645.079 1303.26L672.3 1201.67H655.045L626.489 1308.24L834.976 1516.73Z" fill="#98E4A0" fill-opacity="0.38"/>
<path d="M577.046 1235.23L563.002 1221.18L544.413 1226.17L585.617 1267.37L585.621 1267.36L585.669 1267.41L603.304 1201.67H586.048L577.046 1235.23Z" fill="#98E4A0" fill-opacity="0.38"/>
<path d="M480.08 1208.96L493.688 1222.57L562.095 1290.98L575.699 1304.58L580.684 1286L548.637 1253.95L512.277 1217.59L571.705 1201.67H507.311L498.669 1203.98L480.08 1208.96Z" fill="#98E4A0" fill-opacity="0.38"/>
<path d="M74.5669 1621.56L153.367 1327.47L139.759 1313.86L55.9775 1626.54L247.775 1818.33H271.346L74.5669 1621.56Z" fill="#98E4A0" fill-opacity="0.38"/>
<path d="M590.747 1764.85L391.142 1818.33H455.536L604.355 1778.46L590.747 1764.85Z" fill="#98E4A0" fill-opacity="0.38"/>
<path d="M577.139 1751.24L568.378 1742.48L563.531 1737.63L549.923 1724.03L538.911 1713.01L536.315 1710.42L316.586 1769.29L238.647 1691.35L250.432 1679.57L321.567 1750.7L522.706 1696.81L513.282 1687.39L509.098 1683.2L495.49 1669.59L483.815 1657.92L481.882 1655.99L336.51 1694.94L309.358 1667.79L321.143 1656L341.491 1676.35L468.274 1642.38L454.666 1628.77L346.472 1657.76L332.928 1644.21L332.931 1644.21L321.146 1632.43L321.143 1632.43L309.358 1644.21L297.572 1656L285.787 1667.79L297.572 1679.57L331.528 1713.53L476.9 1674.57L490.508 1688.18L326.547 1732.11L262.218 1667.79L262.22 1667.78L250.435 1656L215.076 1691.35L215.863 1692.14L226.862 1703.14L311.604 1787.88L531.334 1729.01L544.942 1742.61L306.623 1806.47L111.746 1611.59L175.602 1373.28L189.21 1386.88L130.335 1606.61L192.292 1668.57L204.078 1680.36L215.863 1668.57L227.647 1656.79L239.432 1645L239.435 1645L227.65 1633.21L227.647 1633.21L186.102 1591.67L230.035 1427.71L243.643 1441.32L204.691 1586.69L262.218 1644.21L274.003 1656L285.787 1644.21L297.572 1632.43L309.358 1620.64L309.36 1620.64L297.575 1608.86L297.572 1608.86L260.459 1571.75L284.467 1482.14L298.075 1495.75L279.048 1566.76L351.452 1639.17L441.058 1615.16L432.554 1606.66L427.45 1601.55L413.842 1587.94L403.087 1577.19L400.232 1574.34L366.396 1583.4L334.815 1551.82L338.9 1536.57L367.959 1565.63L386.543 1560.65L343.882 1517.99L341.22 1515.32L330.272 1504.38L316.227 1556.8L361.415 1601.99L395.251 1592.93L408.86 1606.53L356.434 1620.58L297.638 1561.78L316.664 1490.77L311.366 1485.47L303.056 1477.16L289.448 1463.55L281.899 1456L275.84 1449.94L271.406 1466.5L270.114 1467.79L270.859 1468.53L241.87 1576.73L285.787 1620.64L274.003 1632.43L223.28 1581.71L262.232 1436.34L258.332 1432.44L248.624 1422.73L235.016 1409.12L228.866 1402.97L221.407 1395.51L167.512 1596.65L215.863 1645L204.078 1656.79L148.923 1601.63L207.799 1381.9L203.335 1377.44L194.191 1368.29L180.583 1354.69L173.868 1347.97L166.975 1341.08L93.1562 1616.57L294.915 1818.33H326.747L577.139 1751.24Z" fill="#98E4A0" fill-opacity="0.38"/>
<path d="M464.219 1218.3L151.544 1302.08L165.152 1315.69L459.237 1236.89L681.332 1458.98L602.532 1753.07L616.14 1766.67L699.921 1454L464.219 1218.3Z" fill="#98E4A0" fill-opacity="0.38"/>
<path d="M454.256 1255.47L178.76 1329.29L187.521 1338.05L192.368 1342.9L205.976 1356.51L216.988 1367.52L219.584 1370.12L439.313 1311.24L517.252 1389.18L505.466 1400.97L434.332 1329.83L233.192 1383.73L242.617 1393.15L246.8 1397.33L260.408 1410.94L272.084 1422.62L274.017 1424.55L419.389 1385.6L446.541 1412.75L434.756 1424.54L414.408 1404.19L287.625 1438.16L301.233 1451.77L409.426 1422.78L422.97 1436.32L422.968 1436.32L434.753 1448.11L434.756 1448.11L446.541 1436.32L458.325 1424.54L470.11 1412.75L458.325 1400.97L424.37 1367.01L278.997 1405.96L265.389 1392.35L429.35 1348.42L493.681 1412.75L493.678 1412.75L505.464 1424.54L540.821 1389.18L540.036 1388.39L529.037 1377.39L444.294 1292.65L224.565 1351.53L210.957 1337.92L449.274 1274.06L644.153 1468.94L580.296 1707.26L566.688 1693.65L625.564 1473.92L563.606 1411.97L551.821 1400.18L540.036 1411.97L528.25 1423.75L516.465 1435.53L516.464 1435.54L528.248 1447.32L528.25 1447.32L569.796 1488.87L525.864 1652.83L512.256 1639.22L551.208 1493.85L493.681 1436.32L481.896 1424.54L470.11 1436.32L458.325 1448.11L446.541 1459.89L446.538 1459.89L458.324 1471.68L458.325 1471.68L495.44 1508.79L471.43 1598.39L457.822 1584.79L476.85 1513.77L404.445 1441.37L314.841 1465.37L323.345 1473.88L328.449 1478.98L342.057 1492.59L352.812 1503.35L355.666 1506.2L389.502 1497.13L421.082 1528.71L416.997 1543.96L387.94 1514.9L369.354 1519.89L412.017 1562.55L414.677 1565.21L425.625 1576.16L439.672 1523.73L394.484 1478.55L360.646 1487.61L347.038 1474L399.465 1459.96L458.261 1518.75L439.234 1589.77L444.533 1595.07L452.842 1603.38L466.45 1616.98L474 1624.53L480.058 1630.59L484.493 1614.04L485.785 1612.75L485.04 1612L514.029 1503.81L470.11 1459.89L481.896 1448.11L532.618 1498.83L493.666 1644.2L497.566 1648.1L507.274 1657.81L520.882 1671.42L527.033 1677.57L534.49 1685.02L588.385 1483.89L540.036 1435.53L551.821 1423.75L606.974 1478.9L548.098 1698.63L552.562 1703.1L561.706 1712.24L575.316 1725.85L582.03 1732.56L588.924 1739.46L662.742 1463.96L454.256 1255.47Z" fill="#98E4A0" fill-opacity="0.38"/>
<path d="M-34.6636 1512.32L-53.2529 1517.3L-39.6449 1530.91L28.7604 1599.31L42.3657 1612.92L47.3511 1594.33L15.3044 1562.28L-21.0556 1525.92L53.8257 1505.86L43.7137 1543.56L29.6684 1529.52L11.0791 1534.5L52.2831 1575.7L52.2884 1575.7L52.3351 1575.75L72.4164 1500.88L77.4031 1482.29L58.8124 1487.27L-34.6636 1512.32Z" fill="#98E4A0" fill-opacity="0.38"/>
<path d="M146.497 1288.42L165.088 1283.43L239.954 1263.35L239.906 1263.3L239.912 1263.3L198.708 1222.09L193.726 1240.68L207.77 1254.73L170.069 1264.84L186.996 1201.67H169.741L151.478 1269.83L146.497 1288.42Z" fill="#98E4A0" fill-opacity="0.38"/>
<path d="M226.494 1226.32L258.54 1258.37L277.124 1253.38L263.52 1239.78L225.412 1201.67H201.842L226.494 1226.32Z" fill="#98E4A0" fill-opacity="0.38"/>
<path d="M57.4133 1456.52L-210 1528.17V1545.42L71.0213 1470.13L57.4133 1456.52Z" fill="#98E4A0" fill-opacity="0.38"/>
<path d="M35.0426 1434.15L30.196 1429.3L16.588 1415.69L5.57597 1404.68L2.97998 1402.08L-210 1459.15V1476.41L-2.00134 1420.67L11.608 1434.28L-210 1493.66V1510.91L43.8053 1442.91L35.0426 1434.15Z" fill="#98E4A0" fill-opacity="0.38"/>
<path d="M82.8066 1458.34L151.581 1201.67H134.327L69.1973 1444.73L82.8066 1458.34Z" fill="#98E4A0" fill-opacity="0.38"/>
<path d="M14.7656 1390.3L19.2296 1394.76L28.3736 1403.91L41.9816 1417.52L48.6963 1424.23L55.5896 1431.12L117.072 1201.67H99.8176L46.963 1398.93L33.355 1385.32L82.563 1201.67H65.3096L14.7656 1390.3Z" fill="#98E4A0" fill-opacity="0.38"/>
<path d="M-39.667 1335.87L-35.7683 1339.77L-26.059 1349.47L-12.451 1363.08L-6.30166 1369.23L1.15701 1376.69L48.0543 1201.67H30.7997L-7.46966 1344.49L-21.079 1330.89L13.545 1201.67H-3.70965L-39.667 1335.87Z" fill="#98E4A0" fill-opacity="0.38"/>
<path d="M455.536 1201.67H391.141L296.661 1226.98L271.345 1201.67H247.774L291.68 1245.57L455.536 1201.67Z" fill="#98E4A0" fill-opacity="0.38"/>
<path d="M326.747 1201.67H294.915L301.642 1208.39L326.747 1201.67Z" fill="#98E4A0" fill-opacity="0.38"/>
<path d="M1740.09 388.756L1687.54 585H1704.79L1753.7 402.371L1740.09 388.756Z" fill="#98E4A0" fill-opacity="0.38"/>
<path d="M1862.57 511.295L1858.67 507.393L1848.96 497.679L1835.35 484.063L1829.2 477.91L1821.74 470.448L1791.06 585H1808.32L1830.37 502.663L1843.98 516.279L1825.57 585H1842.83L1862.57 511.295Z" fill="#98E4A0" fill-opacity="0.38"/>
<path d="M1911.7 560.455L1903.39 552.141L1889.78 538.525L1882.23 530.972L1876.17 524.91L1871.74 541.471L1870.45 542.764L1871.19 543.509L1860.08 585H1877.34L1884.8 557.125L1898.41 570.74L1894.59 585H1911.85L1917 565.756L1911.7 560.455Z" fill="#98E4A0" fill-opacity="0.38"/>
<path d="M1808.13 456.832L1803.67 452.366L1794.53 443.217L1780.92 429.602L1774.2 422.883L1767.31 415.986L1722.05 585H1739.3L1775.94 448.201L1789.54 461.816L1756.55 585H1773.81L1808.13 456.832Z" fill="#98E4A0" fill-opacity="0.38"/>
<path d="M1751.88 376.964L1765.49 390.579L1923.67 348.171V330.909L1751.88 376.964Z" fill="#98E4A0" fill-opacity="0.38"/>
<path d="M1887.96 513.119L1901.57 526.734L1923.67 520.809V503.545L1887.96 513.119Z" fill="#98E4A0" fill-opacity="0.38"/>
<path d="M1787.85 412.961L1792.7 417.81L1806.31 431.425L1817.32 442.444L1819.92 445.041L1923.67 417.227V399.963L1824.9 426.442L1811.29 412.827L1923.67 382.699V365.435L1779.09 404.194L1787.85 412.961Z" fill="#98E4A0" fill-opacity="0.38"/>
<path d="M1879.33 480.904L1865.72 467.289L1923.67 451.755V434.491L1833.53 458.657L1842.95 468.086L1847.13 472.273L1860.74 485.888L1872.42 497.569L1874.35 499.503L1923.67 486.282V469.017L1879.33 480.904Z" fill="#98E4A0" fill-opacity="0.38"/>
<path d="M1915.17 540.349L1923.67 548.847V538.073L1915.17 540.349Z" fill="#98E4A0" fill-opacity="0.38"/>
<path d="M1677.74 557.271L1659.15 562.256L1574.31 585H1638.71L1654.16 580.857L1653.05 585H1670.3L1672.75 575.872L1677.74 557.271Z" fill="#98E4A0" fill-opacity="0.38"/>
<path d="M1840.29 338.216L1840.24 338.17L1840.25 338.164L1799.04 296.938L1794.06 315.537L1808.11 329.589L1770.4 339.706L1790.47 264.786L1826.83 301.164L1858.87 333.228L1877.46 328.242L1863.85 314.629L1795.45 246.187L1781.84 232.571L1776.86 251.171L1751.81 344.696L1746.83 363.298L1765.42 358.308L1840.29 338.216Z" fill="#98E4A0" fill-opacity="0.38"/>
<path d="M1248.51 541.071L1243.53 559.67L1236.74 585H1254L1257.13 573.285L1268.84 585H1292.41L1262.11 554.686L1248.51 541.071Z" fill="#98E4A0" fill-opacity="0.38"/>
<path d="M862.432 585H869.563L863.938 579.371L862.432 585Z" fill="#98E4A0" fill-opacity="0.38"/>
<path d="M997.885 293.137L857 330.908V348.171L992.904 311.737L1215 533.951L1201.33 585H1218.58L1233.59 528.967L997.885 293.137Z" fill="#98E4A0" fill-opacity="0.38"/>
<path d="M938.112 516.328L857 538.073V548.847L857.011 548.858L862.116 553.964L875.724 567.58L886.478 578.34L889.332 581.196L923.169 572.126L936.036 585H959.606L928.15 553.527L894.313 562.597L880.705 548.982L933.131 534.928L983.177 585H1006.75L938.112 516.328Z" fill="#98E4A0" fill-opacity="0.38"/>
<path d="M987.922 330.336L857 365.435V382.699L982.942 348.935L1177.82 543.918L1166.82 585H1184.07L1196.41 538.935L987.922 330.336Z" fill="#98E4A0" fill-opacity="0.38"/>
<path d="M1084.87 568.837L1027.35 511.28L1015.56 499.488L1003.78 511.28L991.992 523.072L980.207 534.863L980.204 534.865L991.989 546.656L991.992 546.654L1029.11 583.788L1028.78 585H1046.04L1047.69 578.804L1003.78 534.863L1015.56 523.072L1066.28 573.821L1063.29 585H1080.55L1084.87 568.837Z" fill="#98E4A0" fill-opacity="0.38"/>
<path d="M963.017 423.332L1027.35 487.697L1027.35 487.7L1039.13 499.491L1074.49 464.114L1073.7 463.328L1062.7 452.323L977.96 367.535L857 399.963V417.227L972.98 386.134L1050.92 464.114L1039.13 475.905L967.998 404.734L857 434.491V451.755L963.017 423.332Z" fill="#98E4A0" fill-opacity="0.38"/>
<path d="M956.636 511.28L956.634 511.283L968.419 523.073L968.422 523.072L980.207 511.28L991.992 499.488L1003.78 487.697L991.992 475.905L958.036 441.931L857 469.017V486.282L953.055 460.53L980.207 487.697L968.422 499.488L948.074 479.129L857 503.545V520.809L943.093 497.729L956.636 511.28Z" fill="#98E4A0" fill-opacity="0.38"/>
<path d="M1159.23 548.902L1097.27 486.911L1085.49 475.119L1073.7 486.911L1061.92 498.703L1050.13 510.493L1050.13 510.496L1061.91 522.288L1061.92 522.285L1103.46 563.854L1097.8 585H1115.05L1122.05 558.87L1073.7 510.493L1085.49 498.703L1140.64 553.886L1132.31 585H1149.56L1159.23 548.902Z" fill="#98E4A0" fill-opacity="0.38"/>
<path d="M1892.01 320.428L1923.67 311.942V294.678L1896.99 301.83L1674.9 79.6157L1704.79 -32.0004H1687.54L1656.31 84.5997L1892.01 320.428Z" fill="#98E4A0" fill-opacity="0.38"/>
<path d="M1862.55 125.87L1862.55 125.867L1850.77 114.076L1815.41 149.452L1816.2 150.239L1827.2 161.244L1911.94 246.032L1923.67 242.888V225.624L1916.92 227.433L1838.98 149.452L1850.77 137.66L1921.9 208.833L1923.67 208.36V187.019L1862.55 125.87Z" fill="#98E4A0" fill-opacity="0.38"/>
<path d="M1921.48 90.4949L1909.69 102.287L1897.91 114.078L1886.12 125.87L1897.91 137.66L1923.67 163.436V139.853L1909.69 125.87L1921.48 114.078L1923.67 116.27V92.6828L1921.48 90.4922L1921.48 90.4949Z" fill="#98E4A0" fill-opacity="0.38"/>
<path d="M1879.38 24.7942L1923.67 69.1047V45.5214L1897.97 19.8101L1911.85 -32.0004H1894.59L1879.38 24.7942Z" fill="#98E4A0" fill-opacity="0.38"/>
<path d="M1923.67 21.938V-11.7162L1916.56 14.8274L1923.67 21.938Z" fill="#98E4A0" fill-opacity="0.38"/>
<path d="M1730.67 64.6635L1792.63 126.656L1804.41 138.447L1816.2 126.656L1827.98 114.864L1839.77 103.072L1839.77 103.07L1827.98 91.2779L1827.98 91.2805L1786.44 49.7128L1808.32 -32.0006H1791.06L1767.85 54.6968L1816.2 103.072L1804.41 114.864L1749.26 59.6808L1773.81 -32.0006H1756.55L1730.67 64.6635Z" fill="#98E4A0" fill-opacity="0.38"/>
<path d="M1805.02 44.7287L1862.55 102.286L1874.34 114.078L1886.12 102.286L1897.91 90.4947L1909.69 78.7031L1909.69 78.7004L1897.91 66.91L1897.91 66.9114L1860.79 29.778L1877.34 -32.0006H1860.08L1842.2 34.762L1886.12 78.7031L1874.34 90.4947L1823.61 39.7461L1842.83 -32.0006H1825.57L1805.02 44.7287Z" fill="#98E4A0" fill-opacity="0.38"/>
<path d="M1901.98 283.231L1923.67 277.414V260.152L1906.96 264.631L1712.08 69.6476L1739.3 -32.0005H1722.05L1693.49 74.6316L1901.98 283.231Z" fill="#98E4A0" fill-opacity="0.38"/>
<path d="M1644.05 1.57893L1630 -12.4727L1611.41 -7.48865L1652.62 33.7375L1652.62 33.7323L1652.67 33.7803L1670.3 -32.0005H1653.05L1644.05 1.57893Z" fill="#98E4A0" fill-opacity="0.38"/>
<path d="M1547.08 -24.6993L1560.69 -11.084L1629.09 57.3583L1642.7 70.9709L1647.68 52.3756L1615.64 20.3116L1579.28 -16.068L1638.71 -32.0005H1574.31L1565.67 -29.6833L1547.08 -24.6993Z" fill="#98E4A0" fill-opacity="0.38"/>
<path d="M1141.57 388.115L1220.37 93.8712L1206.76 80.2559L1122.98 393.099L1314.77 585H1338.35L1141.57 388.115Z" fill="#98E4A0" fill-opacity="0.38"/>
<path d="M1657.75 531.487L1458.14 585H1522.54L1671.35 545.102L1657.75 531.487Z" fill="#98E4A0" fill-opacity="0.38"/>
<path d="M1644.14 517.872L1635.38 509.104L1630.53 504.256L1616.92 490.641L1605.91 479.622L1603.31 477.025L1383.59 535.932L1305.65 457.951L1317.43 446.161L1388.57 517.333L1589.71 463.409L1580.28 453.98L1576.1 449.794L1562.49 436.178L1550.81 424.497L1548.88 422.563L1403.51 461.536L1376.36 434.369L1388.14 422.578L1408.49 442.937L1535.27 408.948L1521.67 395.332L1413.47 424.337L1399.93 410.786L1399.93 410.783L1388.15 398.992L1388.14 398.994L1376.36 410.786L1364.57 422.578L1352.79 434.369L1364.57 446.161L1398.53 480.136L1543.9 441.162L1557.51 454.778L1393.55 498.734L1329.22 434.369L1329.22 434.367L1317.43 422.575L1282.08 457.951L1282.86 458.739L1293.86 469.743L1378.6 554.531L1598.33 495.624L1611.94 509.239L1373.62 573.131L1178.75 378.147L1242.6 139.701L1256.21 153.317L1197.33 373.164L1259.29 435.155L1271.08 446.947L1282.86 435.155L1294.65 423.364L1306.43 411.572L1306.43 411.569L1294.65 399.779L1294.65 399.78L1253.1 358.212L1297.03 194.163L1310.64 207.778L1271.69 353.23L1329.22 410.786L1341 422.578L1352.79 410.786L1364.57 398.994L1376.36 387.203L1376.36 387.201L1364.57 375.41L1364.57 375.412L1327.46 338.278L1351.47 248.625L1365.07 262.241L1346.05 333.294L1418.45 405.738L1508.06 381.717L1499.55 373.208L1494.45 368.1L1480.84 354.485L1470.09 343.726L1467.23 340.87L1433.4 349.94L1401.81 318.343L1405.9 303.088L1434.96 332.161L1453.54 327.173L1410.88 284.489L1408.22 281.826L1397.27 270.872L1383.23 323.327L1428.41 368.539L1462.25 359.469L1475.86 373.084L1423.43 387.139L1364.64 328.311L1383.66 257.257L1378.37 251.955L1370.06 243.641L1356.45 230.026L1348.9 222.473L1342.84 216.411L1338.41 232.972L1337.11 234.263L1337.86 235.01L1308.87 343.262L1352.79 387.203L1341 398.994L1290.28 348.246L1329.23 202.795L1325.33 198.893L1315.62 189.179L1302.02 175.563L1295.87 169.411L1288.41 161.948L1234.51 363.196L1282.86 411.572L1271.08 423.364L1215.92 368.18L1274.8 148.333L1270.33 143.866L1261.19 134.717L1247.58 121.102L1240.87 114.384L1233.97 107.487L1160.16 383.131L1361.91 585H1393.75L1644.14 517.872Z" fill="#98E4A0" fill-opacity="0.38"/>
<path d="M1531.22 -15.3622L1218.54 68.4644L1232.15 82.0797L1526.24 3.23718L1748.33 225.452L1669.53 519.696L1683.14 533.311L1766.92 220.468L1531.22 -15.3622Z" fill="#98E4A0" fill-opacity="0.38"/>
<path d="M1521.26 21.8366L1245.76 95.6951L1254.52 104.461L1259.37 109.31L1272.98 122.926L1283.99 133.944L1286.58 136.541L1506.31 77.6334L1584.25 155.614L1572.47 167.406L1501.33 96.2327L1300.19 150.156L1309.62 159.587L1313.8 163.772L1327.41 177.388L1339.08 189.069L1341.02 191.004L1486.39 152.031L1513.54 179.197L1501.76 190.989L1481.41 170.63L1354.63 204.619L1368.23 218.234L1476.43 189.23L1489.97 202.781L1489.97 202.782L1501.75 214.574L1501.76 214.571L1513.54 202.781L1525.33 190.989L1537.11 179.197L1525.33 167.406L1491.37 133.431L1346 172.404L1332.39 158.789L1496.35 114.832L1560.68 179.197L1560.68 179.2L1572.46 190.992L1607.82 155.614L1607.04 154.828L1596.04 143.822L1511.29 59.0353L1291.57 117.942L1277.96 104.326L1516.27 40.436L1711.15 235.418L1647.3 473.866L1633.69 460.25L1692.56 240.402L1630.61 178.412L1618.82 166.62L1607.04 178.412L1595.25 190.203L1583.47 201.994L1583.46 201.996L1595.25 213.788L1595.25 213.785L1636.8 255.353L1592.86 419.403L1579.26 405.788L1618.21 260.337L1560.68 202.781L1548.9 190.989L1537.11 202.781L1525.33 214.571L1513.54 226.363L1513.54 226.366L1525.32 238.157L1525.33 238.155L1562.44 275.289L1538.43 364.942L1524.82 351.326L1543.85 280.272L1471.45 207.829L1381.84 231.85L1390.35 240.358L1395.45 245.465L1409.06 259.081L1419.81 269.841L1422.67 272.697L1456.5 263.626L1488.08 295.224L1484 310.479L1454.94 281.405L1436.35 286.394L1479.02 329.078L1481.68 331.741L1492.63 342.695L1506.67 290.24L1461.48 245.028L1427.65 254.098L1414.04 240.482L1466.47 226.428L1525.26 285.256L1506.23 356.31L1511.53 361.612L1519.84 369.926L1533.45 383.541L1541 391.094L1547.06 397.156L1551.49 380.595L1552.79 379.303L1552.04 378.557L1581.03 270.305L1537.11 226.363L1548.9 214.571L1599.62 265.321L1560.67 410.772L1564.57 414.674L1574.27 424.387L1587.88 438.002L1594.03 444.156L1601.49 451.617L1655.39 250.37L1607.04 201.994L1618.82 190.203L1673.97 245.386L1615.1 465.234L1619.56 469.701L1628.71 478.85L1642.32 492.465L1649.03 499.183L1655.92 506.08L1729.74 230.434L1521.26 21.8366Z" fill="#98E4A0" fill-opacity="0.38"/>
<path d="M1032.34 278.816L1013.75 283.8L1027.36 297.416L1095.76 365.858L1109.37 379.47L1114.35 360.875L1082.3 328.811L1045.94 292.432L1120.83 272.357L1110.71 310.08L1096.67 296.027L1078.08 301.011L1119.28 342.237L1119.29 342.232L1119.34 342.28L1139.42 267.373L1144.4 248.772L1125.81 253.756L1032.34 278.816Z" fill="#98E4A0" fill-opacity="0.38"/>
<path d="M1213.5 54.7981L1232.09 49.8088L1306.95 29.7166L1306.91 29.6685L1306.91 29.6646L1265.71 -11.5616L1260.73 7.03771L1274.77 21.0893L1237.07 31.2067L1254 -32.0006H1236.74L1218.48 36.1961L1213.5 54.7981Z" fill="#98E4A0" fill-opacity="0.38"/>
<path d="M1293.49 -7.33521L1325.54 24.7288L1344.12 19.7407L1330.52 6.12941L1292.41 -32.0005H1268.84L1293.49 -7.33521Z" fill="#98E4A0" fill-opacity="0.38"/>
<path d="M1124.41 222.988L857 294.678V311.942L1138.02 236.603L1124.41 222.988Z" fill="#98E4A0" fill-opacity="0.38"/>
<path d="M865.194 171.634L1010.57 132.663L1024.17 146.278L860.214 190.234L857 187.019V208.36L1056.37 154.909L1046.95 145.48L1042.76 141.294L1029.16 127.679L1017.48 115.998L1015.55 114.063L870.176 153.035L857 139.853V163.435L865.194 171.634Z" fill="#98E4A0" fill-opacity="0.38"/>
<path d="M875.157 134.437L1001.94 100.448L988.331 86.8329L880.137 115.838L866.594 102.287L866.596 102.284L857 92.6827V116.27L875.157 134.437Z" fill="#98E4A0" fill-opacity="0.38"/>
<path d="M885.119 97.2385L974.723 73.2162L966.22 64.709L961.115 59.6009L947.507 45.9856L936.753 35.2264L933.898 32.3702L900.062 41.4404L868.481 9.84341L872.567 -5.4115L901.625 23.6615L920.209 18.6735L877.547 -24.0121L874.886 -26.6736L869.563 -32.0004H862.432L857 -11.7162V21.9379L895.081 60.0398L928.917 50.9696L942.525 64.5849L890.099 78.6392L857 45.5213V69.1047L885.119 97.2385Z" fill="#98E4A0" fill-opacity="0.38"/>
<path d="M1102.04 200.605L1097.2 195.756L1083.59 182.14L1072.58 171.122L1069.98 168.525L857 225.624V242.888L1065 187.124L1078.61 200.74L857 260.152V277.414L1110.81 209.372L1102.04 200.605Z" fill="#98E4A0" fill-opacity="0.38"/>
<path d="M1149.81 224.811L1218.58 -32.0005H1201.33L1136.2 211.196L1149.81 224.811Z" fill="#98E4A0" fill-opacity="0.38"/>
<path d="M1081.77 156.733L1086.23 161.2L1095.37 170.349L1108.98 183.965L1115.7 190.684L1122.59 197.581L1184.07 -32.0005H1166.82L1113.96 165.366L1100.35 151.751L1149.56 -32.0005H1132.31L1081.77 156.733Z" fill="#98E4A0" fill-opacity="0.38"/>
<path d="M991.928 -23.2438L972.9 47.8105L978.199 53.112L986.508 61.4258L1000.12 75.0412L1007.67 82.5946L1013.73 88.6565L1018.16 72.0956L1019.45 70.8029L1018.71 70.0571L1046.04 -32.0005H1028.78L1005.1 56.4418L991.489 42.8264L1010.52 -28.2278L1006.75 -32.0005H983.176L991.928 -23.2438Z" fill="#98E4A0" fill-opacity="0.38"/>
<path d="M950.664 1.97915L921.606 -27.0953L903.021 -22.1072L945.683 20.5785L948.344 23.2399L959.292 34.1938L973.339 -18.2598L959.606 -32.0005H936.036L954.75 -13.2758L950.664 1.97915Z" fill="#98E4A0" fill-opacity="0.38"/>
<path d="M1027.33 102.272L1031.23 106.174L1040.94 115.887L1054.55 129.502L1060.7 135.656L1068.16 143.118L1115.05 -32.0007H1097.8L1059.53 110.903L1045.92 97.2876L1080.55 -32.0007H1063.29L1027.33 102.272Z" fill="#98E4A0" fill-opacity="0.38"/>
<path d="M1522.54 -32.0007H1458.14L1363.66 -6.67113L1338.35 -32.0007H1314.77L1358.68 11.9282L1522.54 -32.0007Z" fill="#98E4A0" fill-opacity="0.38"/>
<path d="M673.092 388.756L620.537 585H637.792L686.7 402.371L673.092 388.756Z" fill="#98E4A0" fill-opacity="0.38"/>
<path d="M795.566 511.295L791.666 507.393L781.958 497.679L768.35 484.063L762.199 477.91L754.742 470.448L724.064 585H741.319L763.368 502.663L776.976 516.279L758.574 585H775.827L795.566 511.295Z" fill="#98E4A0" fill-opacity="0.38"/>
<path d="M844.698 560.455L836.389 552.141L822.781 538.525L815.232 530.972L809.173 524.91L804.738 541.471L803.446 542.764L804.192 543.509L793.081 585H810.336L817.801 557.125L831.409 570.74L827.59 585H844.845L849.997 565.756L844.698 560.455Z" fill="#98E4A0" fill-opacity="0.38"/>
<path d="M741.133 456.832L736.669 452.366L727.525 443.217L713.916 429.602L707.201 422.883L700.308 415.986L655.045 585H672.3L708.936 448.201L722.544 461.816L689.554 585H706.809L741.133 456.832Z" fill="#98E4A0" fill-opacity="0.38"/>
<path d="M684.877 376.964L698.485 390.579L856.668 348.171V330.909L684.877 376.964Z" fill="#98E4A0" fill-opacity="0.38"/>
<path d="M820.959 513.119L834.567 526.734L856.668 520.809V503.545L820.959 513.119Z" fill="#98E4A0" fill-opacity="0.38"/>
<path d="M720.855 412.961L725.702 417.81L739.31 431.425L750.323 442.444L752.918 445.041L856.668 417.227V399.963L757.899 426.442L744.291 412.827L856.668 382.699V365.435L712.094 404.194L720.855 412.961Z" fill="#98E4A0" fill-opacity="0.38"/>
<path d="M812.333 480.904L798.725 467.289L856.669 451.755V434.491L766.527 458.657L775.951 468.086L780.135 472.273L793.743 485.888L805.418 497.569L807.351 499.503L856.669 486.282V469.017L812.333 480.904Z" fill="#98E4A0" fill-opacity="0.38"/>
<path d="M848.175 540.349L856.668 548.847V538.073L848.175 540.349Z" fill="#98E4A0" fill-opacity="0.38"/>
<path d="M610.736 557.271L592.145 562.256L507.311 585H571.705L587.159 580.857L586.048 585H603.304L605.751 575.872L610.736 557.271Z" fill="#98E4A0" fill-opacity="0.38"/>
<path d="M773.287 338.216L773.241 338.17L773.245 338.164L732.041 296.938L727.059 315.537L741.105 329.589L703.402 339.706L723.466 264.786L759.826 301.164L791.873 333.228L810.458 328.242L796.853 314.629L728.447 246.187L714.839 232.571L709.858 251.171L684.811 344.696L679.83 363.298L698.421 358.308L773.287 338.216Z" fill="#98E4A0" fill-opacity="0.38"/>
<path d="M181.507 541.071L176.525 559.67L169.741 585H186.996L190.133 573.285L201.841 585H225.412L195.115 554.686L181.507 541.071Z" fill="#98E4A0" fill-opacity="0.38"/>
<path d="M-69.1147 293.137L-210 330.908V348.171L-74.096 311.737L147.997 533.951L134.327 585H151.581L166.587 528.967L-69.1147 293.137Z" fill="#98E4A0" fill-opacity="0.38"/>
<path d="M-79.0776 330.336L-210 365.435V382.699L-84.0583 348.935L110.82 543.918L99.8173 585H117.072L129.409 538.935L-79.0776 330.336Z" fill="#98E4A0" fill-opacity="0.38"/>
<path d="M17.8733 568.837L-39.652 511.28L-51.4374 499.488L-63.2227 511.28L-75.008 523.072L-86.7932 534.863L-86.7959 534.865L-75.0107 546.656L-75.008 546.654L-37.8934 583.788L-38.2187 585H-20.964L-19.3054 578.804L-63.2227 534.863L-51.4374 523.072L-0.716034 573.821L-3.70937 585H13.5453L17.8733 568.837Z" fill="#98E4A0" fill-opacity="0.38"/>
<path d="M-103.983 423.332L-39.652 487.697L-39.6547 487.7L-27.8694 499.491L7.48799 464.114L6.70265 463.328L-4.29735 452.323L-89.0396 367.535L-210 399.963V417.227L-94.0203 386.134L-16.0827 464.114L-27.868 475.905L-99.0016 404.734L-210 434.491V451.755L-103.983 423.332Z" fill="#98E4A0" fill-opacity="0.38"/>
<path d="M92.2302 548.902L30.2716 486.911L18.4876 475.119L6.70224 486.911L-5.08309 498.703L-16.8684 510.493L-16.8711 510.496L-5.08576 522.288L-5.08309 522.285L36.4622 563.854L30.7996 585H48.0542L55.0516 558.87L6.70224 510.493L18.4876 498.703L73.6409 553.886L65.3089 585H82.5622L92.2302 548.902Z" fill="#98E4A0" fill-opacity="0.38"/>
<path d="M825.013 320.428L856.668 311.942V294.678L829.995 301.83L607.9 79.6157L637.792 -32.0004H620.537L589.311 84.5997L825.013 320.428Z" fill="#98E4A0" fill-opacity="0.38"/>
<path d="M795.55 125.87L795.553 125.867L783.767 114.076L748.41 149.452L749.196 150.239L760.196 161.244L844.937 246.032L856.667 242.888V225.624L849.918 227.433L771.979 149.452L783.765 137.66L854.899 208.833L856.667 208.36V187.019L795.55 125.87Z" fill="#98E4A0" fill-opacity="0.38"/>
<path d="M854.476 90.4949L842.69 102.287L830.906 114.078L819.121 125.87L830.906 137.66L856.668 163.436V139.853L842.69 125.87L854.476 114.078L856.668 116.27V92.6828L854.478 90.4922L854.476 90.4949Z" fill="#98E4A0" fill-opacity="0.38"/>
<path d="M812.381 24.7942L856.668 69.1047V45.5214L830.97 19.8101L844.845 -32.0004H827.59L812.381 24.7942Z" fill="#98E4A0" fill-opacity="0.38"/>
<path d="M856.668 21.938V-11.7162L849.561 14.8274L856.668 21.938Z" fill="#98E4A0" fill-opacity="0.38"/>
<path d="M663.668 64.6635L725.625 126.656L737.411 138.447L749.196 126.656L760.981 114.864L772.767 103.072L772.769 103.07L760.984 91.2779L760.981 91.2805L719.436 49.7128L741.319 -32.0006H724.064L700.847 54.6968L749.196 103.072L737.411 114.864L682.257 59.6808L706.809 -32.0006H689.555L663.668 64.6635Z" fill="#98E4A0" fill-opacity="0.38"/>
<path d="M738.023 44.7287L795.55 102.286L807.335 114.078L819.121 102.286L830.906 90.4947L842.69 78.7031L842.693 78.7004L830.909 66.91L830.906 66.9114L793.791 29.778L810.335 -32.0006H793.081L775.202 34.762L819.121 78.7031L807.335 90.4947L756.613 39.7461L775.826 -32.0006H758.573L738.023 44.7287Z" fill="#98E4A0" fill-opacity="0.38"/>
<path d="M834.976 283.231L856.668 277.414V260.152L839.957 264.631L645.079 69.6476L672.3 -32.0005H655.045L626.489 74.6316L834.976 283.231Z" fill="#98E4A0" fill-opacity="0.38"/>
<path d="M577.046 1.57893L563.002 -12.4727L544.413 -7.48865L585.617 33.7375L585.621 33.7323L585.669 33.7803L603.304 -32.0005H586.048L577.046 1.57893Z" fill="#98E4A0" fill-opacity="0.38"/>
<path d="M480.08 -24.6993L493.688 -11.084L562.095 57.3583L575.699 70.9709L580.684 52.3756L548.637 20.3116L512.277 -16.068L571.705 -32.0005H507.311L498.669 -29.6833L480.08 -24.6993Z" fill="#98E4A0" fill-opacity="0.38"/>
<path d="M74.5669 388.115L153.367 93.8712L139.759 80.2559L55.9775 393.099L247.775 585H271.346L74.5669 388.115Z" fill="#98E4A0" fill-opacity="0.38"/>
<path d="M590.747 531.487L391.142 585H455.536L604.355 545.102L590.747 531.487Z" fill="#98E4A0" fill-opacity="0.38"/>
<path d="M577.139 517.872L568.378 509.104L563.531 504.256L549.923 490.641L538.911 479.622L536.315 477.025L316.586 535.932L238.647 457.951L250.432 446.161L321.567 517.333L522.706 463.409L513.282 453.98L509.098 449.794L495.49 436.178L483.815 424.497L481.882 422.563L336.51 461.536L309.358 434.369L321.143 422.578L341.491 442.937L468.274 408.948L454.666 395.332L346.472 424.337L332.928 410.786L332.931 410.783L321.146 398.992L321.143 398.994L309.358 410.786L297.572 422.578L285.787 434.369L297.572 446.161L331.528 480.136L476.9 441.162L490.508 454.778L326.547 498.734L262.218 434.369L262.22 434.367L250.435 422.575L215.076 457.951L215.863 458.739L226.862 469.743L311.604 554.531L531.334 495.624L544.942 509.239L306.623 573.131L111.746 378.147L175.602 139.701L189.21 153.317L130.335 373.164L192.292 435.155L204.078 446.947L215.863 435.155L227.647 423.364L239.432 411.572L239.435 411.569L227.65 399.779L227.647 399.78L186.102 358.212L230.035 194.163L243.643 207.778L204.691 353.23L262.218 410.786L274.003 422.578L285.787 410.786L297.572 398.994L309.358 387.203L309.36 387.201L297.575 375.41L297.572 375.412L260.459 338.278L284.467 248.625L298.075 262.241L279.048 333.294L351.452 405.738L441.058 381.717L432.554 373.208L427.45 368.1L413.842 354.485L403.087 343.726L400.232 340.87L366.396 349.94L334.815 318.343L338.9 303.088L367.959 332.161L386.543 327.173L343.882 284.489L341.22 281.826L330.272 270.872L316.227 323.327L361.415 368.539L395.251 359.469L408.86 373.084L356.434 387.139L297.638 328.311L316.664 257.257L311.366 251.955L303.056 243.641L289.448 230.026L281.899 222.473L275.84 216.411L271.406 232.972L270.114 234.263L270.859 235.01L241.87 343.262L285.787 387.203L274.003 398.994L223.28 348.246L262.232 202.795L258.332 198.893L248.624 189.179L235.016 175.563L228.866 169.411L221.407 161.948L167.512 363.196L215.863 411.572L204.078 423.364L148.923 368.18L207.799 148.333L203.335 143.866L194.191 134.717L180.583 121.102L173.868 114.384L166.975 107.487L93.1562 383.131L294.915 585H326.747L577.139 517.872Z" fill="#98E4A0" fill-opacity="0.38"/>
<path d="M464.219 -15.3622L151.544 68.4644L165.152 82.0797L459.237 3.23718L681.332 225.452L602.532 519.696L616.14 533.311L699.921 220.468L464.219 -15.3622Z" fill="#98E4A0" fill-opacity="0.38"/>
<path d="M454.256 21.8366L178.76 95.6951L187.521 104.461L192.368 109.31L205.976 122.926L216.988 133.944L219.584 136.541L439.313 77.6334L517.252 155.614L505.466 167.406L434.332 96.2327L233.192 150.156L242.617 159.587L246.8 163.772L260.408 177.388L272.084 189.069L274.017 191.004L419.389 152.031L446.541 179.197L434.756 190.989L414.408 170.63L287.625 204.619L301.233 218.234L409.426 189.23L422.97 202.781L422.968 202.782L434.753 214.574L434.756 214.571L446.541 202.781L458.325 190.989L470.11 179.197L458.325 167.406L424.37 133.431L278.997 172.404L265.389 158.789L429.35 114.832L493.681 179.197L493.678 179.2L505.464 190.992L540.821 155.614L540.036 154.828L529.037 143.822L444.294 59.0353L224.565 117.942L210.957 104.326L449.274 40.436L644.153 235.418L580.296 473.866L566.688 460.25L625.564 240.402L563.606 178.412L551.821 166.62L540.036 178.412L528.25 190.203L516.465 201.994L516.464 201.996L528.248 213.788L528.25 213.785L569.796 255.353L525.864 419.403L512.256 405.788L551.208 260.337L493.681 202.781L481.896 190.989L470.11 202.781L458.325 214.571L446.541 226.363L446.538 226.366L458.324 238.157L458.325 238.155L495.44 275.289L471.43 364.942L457.822 351.326L476.85 280.272L404.445 207.829L314.841 231.85L323.345 240.358L328.449 245.465L342.057 259.081L352.812 269.841L355.666 272.697L389.502 263.626L421.082 295.224L416.997 310.479L387.94 281.405L369.354 286.394L412.017 329.078L414.677 331.741L425.625 342.695L439.672 290.24L394.484 245.028L360.646 254.098L347.038 240.482L399.465 226.428L458.261 285.256L439.234 356.31L444.533 361.612L452.842 369.926L466.45 383.541L474 391.094L480.058 397.156L484.493 380.595L485.785 379.303L485.04 378.557L514.029 270.305L470.11 226.363L481.896 214.571L532.618 265.321L493.666 410.772L497.566 414.674L507.274 424.387L520.882 438.002L527.033 444.156L534.49 451.617L588.385 250.37L540.036 201.994L551.821 190.203L606.974 245.386L548.098 465.234L552.562 469.701L561.706 478.85L575.316 492.465L582.03 499.183L588.924 506.08L662.742 230.434L454.256 21.8366Z" fill="#98E4A0" fill-opacity="0.38"/>
<path d="M-34.6636 278.816L-53.2529 283.8L-39.6449 297.416L28.7604 365.858L42.3657 379.47L47.3511 360.875L15.3044 328.811L-21.0556 292.432L53.8257 272.357L43.7137 310.08L29.6684 296.027L11.0791 301.011L52.2831 342.237L52.2884 342.232L52.3351 342.28L72.4164 267.373L77.4031 248.772L58.8124 253.756L-34.6636 278.816Z" fill="#98E4A0" fill-opacity="0.38"/>
<path d="M146.497 54.7981L165.088 49.8088L239.954 29.7166L239.906 29.6685L239.912 29.6646L198.708 -11.5616L193.726 7.03771L207.77 21.0893L170.069 31.2067L186.996 -32.0006H169.741L151.478 36.1961L146.497 54.7981Z" fill="#98E4A0" fill-opacity="0.38"/>
<path d="M226.494 -7.33521L258.54 24.7288L277.124 19.7407L263.52 6.12941L225.412 -32.0005H201.842L226.494 -7.33521Z" fill="#98E4A0" fill-opacity="0.38"/>
<path d="M57.4133 222.988L-210 294.678V311.942L71.0213 236.603L57.4133 222.988Z" fill="#98E4A0" fill-opacity="0.38"/>
<path d="M35.0426 200.605L30.196 195.756L16.588 182.14L5.57597 171.122L2.97998 168.525L-210 225.624V242.888L-2.00134 187.124L11.608 200.74L-210 260.152V277.414L43.8053 209.372L35.0426 200.605Z" fill="#98E4A0" fill-opacity="0.38"/>
<path d="M82.8066 224.811L151.581 -32.0005H134.327L69.1973 211.196L82.8066 224.811Z" fill="#98E4A0" fill-opacity="0.38"/>
<path d="M14.7656 156.733L19.2296 161.2L28.3736 170.349L41.9816 183.965L48.6963 190.684L55.5896 197.581L117.072 -32.0005H99.8176L46.963 165.366L33.355 151.751L82.563 -32.0005H65.3096L14.7656 156.733Z" fill="#98E4A0" fill-opacity="0.38"/>
<path d="M-39.667 102.272L-35.7683 106.174L-26.059 115.887L-12.451 129.502L-6.30166 135.656L1.15701 143.118L48.0543 -32.0007H30.7997L-7.46966 110.903L-21.079 97.2876L13.545 -32.0007H-3.70965L-39.667 102.272Z" fill="#98E4A0" fill-opacity="0.38"/>
<path d="M455.536 -32.0007H391.141L296.661 -6.67113L271.345 -32.0007H247.774L291.68 11.9282L455.536 -32.0007Z" fill="#98E4A0" fill-opacity="0.38"/>
</g>
</svg>
