<svg width="345" height="120" viewBox="0 0 345 120" fill="none" xmlns="http://www.w3.org/2000/svg">
<g clip-path="url(#clip0_149_266)">
<path d="M28.3756 8.98389H7.85059V100.749H28.3756V8.98389Z" fill="#34A853"/>
<path d="M36.2266 14.1176V8.98389L-0.0257607 8.98389V14.1176L36.2266 14.1176Z" fill="#34A853"/>
<path d="M36.2266 103.316V98.1819H-0.0257645V103.316H36.2266Z" fill="#34A853"/>
<path d="M66.6293 0H61.498V120H66.6293V0Z" fill="#34A853"/>
<path d="M104.755 35.4995H94.1587V79.4696H104.755V35.4995Z" fill="#34A853"/>
<path d="M108.475 32.676H90.4385V36.1156H108.475V32.676Z" fill="#34A853"/>
<path d="M108.475 76.0044H90.4385V79.444H108.475V76.0044Z" fill="#34A853"/>
<path d="M158.197 32.676H145.292V36.1156H158.197V32.676Z" fill="#34A853"/>
<path d="M130.129 76.0044H117.224V79.444H130.129V76.0044Z" fill="#34A853"/>
<path d="M124.998 32.676H121.457V79.4439H124.998V32.676Z" fill="#34A853"/>
<path d="M153.502 32.676H149.961V79.4439H153.502V32.676Z" fill="#34A853"/>
<path d="M117.224 32.676V35.4996H121.457L149.961 79.4439H153.502V63.8632L130.129 32.676H117.224Z" fill="#34A853"/>
<path d="M181.159 35.4995H170.563V79.4696H181.159V35.4995Z" fill="#34A853"/>
<path d="M183.956 32.676H167.767V36.1156H183.956V32.676Z" fill="#34A853"/>
<path d="M183.956 76.0044H167.767V79.444H183.956V76.0044Z" fill="#34A853"/>
<path d="M203.89 32.676H190.985V36.1156H203.89V32.676Z" fill="#34A853"/>
<path d="M199.958 35.7005L197.319 33.3782L170.65 63.7169L173.29 66.0392L199.958 35.7005Z" fill="#34A853"/>
<path d="M207.226 79.4438V76.6459H202.967L184.725 50.6438L178.645 58.5497L194.295 79.4438H207.226Z" fill="#34A853"/>
<path d="M232.343 32.676C221.542 32.676 212.768 43.6621 212.768 57.1894C212.768 70.7167 221.542 81.7028 232.343 81.7028C243.145 81.7028 251.893 70.7167 251.893 57.1894C251.893 43.6621 243.145 32.676 232.343 32.676ZM232.343 77.7498C227.623 77.7498 223.8 68.5349 223.8 57.2151C223.8 45.8953 227.623 36.6803 232.343 36.6803C237.064 36.6803 240.861 45.8953 240.861 57.2151C240.861 68.5349 237.038 77.7498 232.343 77.7498Z" fill="#34A853"/>
<path d="M295.766 66.9433H292.482C292.687 69.7412 289.326 77.7497 283.066 76.6717C278.371 75.8503 275.01 65.6856 274.984 57.1893C274.958 48.693 278.037 38.477 283.066 37.7069C285.046 37.6624 287 38.1689 288.71 39.1701C289.85 39.8585 290.872 40.7251 291.738 41.7369V47.461H295.047V31.4438H291.584V35.9358C288.953 34.4288 285.936 33.7323 282.912 33.9337C273.932 34.6011 264.337 45.3818 264.362 57.1893C264.362 70.2032 276.113 79.9572 282.912 80.2909C284.823 80.3833 286.735 80.1311 288.556 79.5465C296.689 76.8 295.766 66.9433 295.766 66.9433Z" fill="#34A853"/>
<path d="M320.396 35.4482H311.134V79.4183H320.396V35.4482Z" fill="#34A853"/>
<path d="M323.68 32.6504H307.875V36.09H323.68V32.6504Z" fill="#34A853"/>
<path d="M323.68 75.9529H307.875V79.3925H323.68V75.9529Z" fill="#34A853"/>
<path d="M341.716 35.4995H332.454V79.4696H341.716V35.4995Z" fill="#34A853"/>
<path d="M345 32.676H329.196V36.1156H345V32.676Z" fill="#34A853"/>
<path d="M345 76.0044H329.196V79.444H345V76.0044Z" fill="#34A853"/>
<path d="M335.379 57.8567V54.3145H317.189V57.8567H335.379Z" fill="#34A853"/>
</g>
<defs>
<clipPath id="clip0_149_266">
<rect width="345" height="120" fill="white"/>
</clipPath>
</defs>
</svg>
