<svg width="197" height="69" viewBox="0 0 197 69" fill="none" xmlns="http://www.w3.org/2000/svg">
<g clip-path="url(#clip0_46_109)">
<path d="M16.203 5.16577H4.48291V57.9305H16.203V5.16577Z" fill="#34A853"/>
<path d="M20.686 8.11764V5.16577L-0.0145664 5.16577V8.11764L20.686 8.11764Z" fill="#34A853"/>
<path d="M20.686 59.4064V56.4545H-0.0145683V59.4064H20.686Z" fill="#34A853"/>
<path d="M38.0462 0H35.1162V69H38.0462V0Z" fill="#34A853"/>
<path d="M59.8166 20.4122H53.7661V45.695H59.8166V20.4122Z" fill="#34A853"/>
<path d="M61.9406 18.7887H51.6416V20.7664H61.9406V18.7887Z" fill="#34A853"/>
<path d="M61.9406 43.7025H51.6416V45.6802H61.9406V43.7025Z" fill="#34A853"/>
<path d="M90.3329 18.7887H82.9639V20.7664H90.3329V18.7887Z" fill="#34A853"/>
<path d="M74.3055 43.7025H66.9365V45.6802H74.3055V43.7025Z" fill="#34A853"/>
<path d="M71.3752 18.7887H69.3535V45.6802H71.3752V18.7887Z" fill="#34A853"/>
<path d="M87.6516 18.7887H85.6299V45.6802H87.6516V18.7887Z" fill="#34A853"/>
<path d="M66.9365 18.7887V20.4122H69.3538L85.6301 45.6802H87.6518V36.7213L74.3055 18.7887H66.9365Z" fill="#34A853"/>
<path d="M103.445 20.4122H97.394V45.695H103.445V20.4122Z" fill="#34A853"/>
<path d="M105.042 18.7887H95.7974V20.7664H105.042V18.7887Z" fill="#34A853"/>
<path d="M105.042 43.7025H95.7974V45.6802H105.042V43.7025Z" fill="#34A853"/>
<path d="M116.425 18.7887H109.056V20.7664H116.425V18.7887Z" fill="#34A853"/>
<path d="M114.18 20.5278L112.672 19.1925L97.4441 36.6373L98.9513 37.9726L114.18 20.5278Z" fill="#34A853"/>
<path d="M118.329 45.6802V44.0714H115.897L105.481 29.1202L102.009 33.6661L110.945 45.6802H118.329Z" fill="#34A853"/>
<path d="M132.672 18.7887C126.504 18.7887 121.494 25.1057 121.494 32.8839C121.494 40.662 126.504 46.979 132.672 46.979C138.839 46.979 143.835 40.662 143.835 32.8839C143.835 25.1057 138.839 18.7887 132.672 18.7887ZM132.672 44.7061C129.976 44.7061 127.793 39.4075 127.793 32.8986C127.793 26.3897 129.976 21.0911 132.672 21.0911C135.367 21.0911 137.536 26.3897 137.536 32.8986C137.536 39.4075 135.353 44.7061 132.672 44.7061Z" fill="#34A853"/>
<path d="M168.886 38.4924H167.011C167.128 40.1012 165.209 44.7061 161.635 44.0862C158.954 43.6139 157.034 37.7692 157.02 32.8839C157.005 27.9985 158.763 22.1243 161.635 21.6815C162.765 21.6559 163.881 21.9471 164.858 22.5228C165.508 22.9186 166.092 23.4169 166.586 23.9987V27.2901H168.476V18.0802H166.498V20.6631C164.996 19.7966 163.274 19.3961 161.547 19.5119C156.419 19.8956 150.94 26.0945 150.955 32.8839C150.955 40.3668 157.664 45.9754 161.547 46.1673C162.638 46.2204 163.729 46.0754 164.77 45.7393C169.414 44.16 168.886 38.4924 168.886 38.4924Z" fill="#34A853"/>
<path d="M182.951 20.3827H177.662V45.6655H182.951V20.3827Z" fill="#34A853"/>
<path d="M184.826 18.7739H175.801V20.7517H184.826V18.7739Z" fill="#34A853"/>
<path d="M184.826 43.6729H175.801V45.6507H184.826V43.6729Z" fill="#34A853"/>
<path d="M195.125 20.4122H189.836V45.695H195.125V20.4122Z" fill="#34A853"/>
<path d="M197 18.7887H187.976V20.7664H197V18.7887Z" fill="#34A853"/>
<path d="M197 43.7025H187.976V45.6802H197V43.7025Z" fill="#34A853"/>
<path d="M191.506 33.2676V31.2308H181.119V33.2676H191.506Z" fill="#34A853"/>
</g>
<defs>
<clipPath id="clip0_46_109">
<rect width="197" height="69" fill="white"/>
</clipPath>
</defs>
</svg>
