<svg width="90" height="79" viewBox="0 0 90 79" fill="none" xmlns="http://www.w3.org/2000/svg">
<path d="M0 0H90V79C88 49 39.5 2 0 0Z" fill="#FF0000"/>
<path d="M52.7107 6.42957C52.2436 6.17501 51.7768 6.02696 51.3105 5.98543C50.8487 5.9357 50.4018 5.99509 49.9698 6.1636C49.5423 6.32392 49.1383 6.58739 48.7578 6.95402C48.3818 7.31246 48.0442 7.76622 47.7449 8.31531C47.3519 9.03651 47.1209 9.72376 47.0519 10.377C46.9911 11.0348 47.1038 11.6277 47.39 12.1557C47.6844 12.6882 48.1677 13.1375 48.8397 13.5037C49.2249 13.7136 49.6075 13.8796 49.9874 14.0016C50.3673 14.1236 50.748 14.2248 51.1294 14.3051L50.6069 15.2639C50.2121 15.2082 49.8228 15.113 49.4392 14.9784C49.0637 14.8482 48.6342 14.6513 48.1507 14.3878C47.2574 13.901 46.6121 13.3102 46.2148 12.6154C45.8175 11.9205 45.6526 11.1504 45.72 10.3049C45.7957 9.46394 46.0836 8.58449 46.5838 7.6666C46.9455 7.00277 47.3662 6.44544 47.8457 5.9946C48.3334 5.54822 48.8629 5.22027 49.4342 5.01074C50.0136 4.80567 50.6236 4.73951 51.2643 4.81225C51.9093 4.87681 52.572 5.09443 53.2522 5.46511C53.703 5.71075 54.1128 5.99252 54.4816 6.31044C54.8504 6.62837 55.1541 6.9586 55.3926 7.30115L54.4409 7.99426C54.2375 7.72395 53.9945 7.44807 53.7121 7.16661C53.4379 6.88963 53.1041 6.64394 52.7107 6.42957Z" fill="white"/>
<path d="M59.9318 12.6747L61.0542 13.4141L56.3899 14.6667L57.1482 19.8269L55.9557 19.0413L55.2213 13.9975L53.1264 17.1775L52.0976 16.4997L56.2258 10.2333L57.2546 10.911L55.2521 13.9507L59.9318 12.6747Z" fill="white"/>
<path d="M61.2503 19.2234C61.1986 19.2896 61.1203 19.3824 61.0153 19.5018C60.9234 19.6195 60.8193 19.7454 60.7028 19.8795C60.5921 20.0062 60.4843 20.1292 60.3794 20.2486C60.2801 20.3606 60.1981 20.4505 60.1334 20.5183L67.168 18.034L68.3601 18.9641L63.7441 24.8803L62.839 24.1742L65.5604 20.6862C65.6522 20.5685 65.7728 20.4139 65.9221 20.2226C66.0787 20.037 66.2325 19.8551 66.3833 19.6769C66.54 19.4913 66.6593 19.3536 66.7413 19.2637L59.7373 21.7542L58.5342 20.8155L63.1502 14.8992L64.0664 15.614L61.2503 19.2234Z" fill="white"/>
<path d="M74.3853 24.3739L69.9982 29.1266L70.8006 29.8673L68.3317 32.542L67.4573 31.7348L69.2235 29.8214L65.3864 26.2794L63.6201 28.1929L62.756 27.3952L65.2249 24.7205L65.6673 25.1288C66.3879 24.9811 67.0885 24.745 67.769 24.4206C68.4628 24.0956 69.1206 23.6994 69.7426 23.232C70.3778 22.7641 70.9584 22.2521 71.4843 21.6961L74.3853 24.3739ZM71.6315 23.1466C71.1736 23.5876 70.6553 24.0046 70.0766 24.3977C69.5042 24.7838 68.9165 25.1178 68.3135 25.3995C67.7173 25.6875 67.1473 25.8854 66.6034 25.993L69.1238 28.3195L72.8557 24.2766L71.6315 23.1466Z" fill="white"/>
<path d="M80.0872 30.3045L80.996 31.2947L76.167 31.375L75.6472 36.5646L74.6817 35.5125L75.1964 30.4416L72.3908 33.0164L71.5578 32.1087L77.0864 27.0348L77.9194 27.9425L75.2376 30.4037L80.0872 30.3045Z" fill="white"/>
<path d="M84.522 35.4776C85.0797 36.2027 85.3331 36.8614 85.2824 37.4538C85.2317 38.0462 84.8586 38.6098 84.1632 39.1446L80.1126 42.2598L79.5663 41.5496L80.2647 40.7123L80.2305 40.6679C79.8851 40.6628 79.5673 40.6246 79.2771 40.5534C78.9999 40.484 78.737 40.3565 78.4884 40.1709C78.2454 39.9928 77.9959 39.7373 77.7398 39.4043C77.4667 39.0492 77.2821 38.679 77.186 38.2938C77.0955 37.9159 77.1172 37.546 77.251 37.1841C77.3921 36.8165 77.6625 36.4791 78.062 36.1718C78.6538 35.7166 79.2881 35.5997 79.9647 35.8212C80.6487 36.0369 81.3781 36.618 82.1531 37.5644L82.9631 38.5487L83.3182 38.2756C83.8139 37.8944 84.0754 37.5225 84.1028 37.16C84.1301 36.7975 83.993 36.4202 83.6914 36.0281C83.4525 35.7174 83.1768 35.4584 82.8644 35.2512C82.5594 35.0384 82.2538 34.8554 81.9477 34.7023L82.4497 33.8394C82.7894 33.9902 83.1439 34.2062 83.5132 34.4873C83.8899 34.7628 84.2262 35.0929 84.522 35.4776ZM81.57 38.2071C80.9715 37.49 80.4576 37.0669 80.0286 36.9377C79.6052 36.8159 79.2049 36.9 78.8275 37.1902C78.4946 37.4463 78.3273 37.7339 78.3255 38.0532C78.3295 38.3798 78.4538 38.7022 78.6985 39.0203C79.0854 39.5234 79.5437 39.8362 80.0735 39.9586C80.6107 40.0753 81.1678 39.9117 81.7449 39.4679L82.2776 39.0582L81.57 38.2071Z" fill="white"/>
</svg>
