<svg width="745" height="501" viewBox="0 0 745 501" fill="none" xmlns="http://www.w3.org/2000/svg">
<path d="M322.101 267.024C313.934 242.566 298.3 224.577 275.2 213.056C252.1 201.536 228.31 199.863 203.829 208.038C179.349 216.213 161.337 231.845 149.795 254.934C138.252 278.023 136.564 301.796 144.732 326.253C152.899 350.711 168.532 368.7 191.632 380.22C214.732 391.741 238.522 393.414 263.003 385.239C287.484 377.064 305.495 361.432 317.038 338.343C328.58 315.254 330.268 291.481 322.101 267.024ZM647.328 355.38C643.321 343.382 635.466 334.464 623.762 328.627C612.058 322.79 600.202 321.877 588.192 325.887C576.183 329.898 567.254 337.752 561.406 349.45C555.558 361.149 554.637 372.997 558.644 384.995C562.727 397.224 570.544 406.218 582.094 411.978C593.644 417.739 605.539 418.575 617.779 414.488C630.019 410.4 639.025 402.584 644.797 391.04C650.568 379.495 651.412 367.609 647.328 355.38ZM528.981 0.977875C524.974 -11.0201 517.119 -19.9377 505.415 -25.7748C493.711 -31.6119 481.854 -32.5253 469.845 -28.5149C457.836 -24.5046 448.907 -16.6502 443.059 -4.95183C437.211 6.74656 436.29 18.5948 440.296 30.5927C444.38 42.8215 452.197 51.816 463.747 57.5763C475.296 63.3366 487.192 64.173 499.432 60.0856C511.672 55.9981 520.678 48.1821 526.449 36.6376C532.221 25.0932 533.064 13.2066 528.981 0.977875ZM444.61 191.107L465.991 255.134C466.762 257.442 466.705 259.961 465.82 262.693C464.936 265.425 463.492 267.253 461.491 268.178L410.569 294.415C410.725 303.339 409.958 313.341 408.267 324.42C419.818 332.873 434.641 342.67 452.736 353.81C455.2 355.808 456.779 357.845 457.473 359.922C458.397 362.691 458.321 365.152 457.243 367.307C454.243 376.003 448.164 389.51 439.007 407.827C429.85 426.144 423.078 436.035 418.69 437.501C416.149 438.349 413.455 438.351 410.606 437.507L360.365 419.662C353.284 426.9 345.587 433.445 337.273 439.299C343.054 465.066 346.37 483.835 347.22 495.604C347.452 501.682 344.912 505.607 339.601 507.381L275.166 528.898C272.625 529.747 270.027 529.653 267.37 528.616C264.714 527.58 262.885 525.947 261.884 523.716L236.233 473.424C227.61 473.739 217.756 473.055 206.669 471.372L176.077 515.825C174.999 517.98 172.959 519.559 169.957 520.561C167.417 521.41 164.683 521.296 161.758 520.222C118.253 500.64 95.4611 487.735 93.3807 481.505C92.6873 479.428 92.7637 476.966 93.6098 474.119C94.8406 470.118 97.5333 462.422 101.688 451.033C105.842 439.644 108.92 430.794 110.92 424.484C102.218 416.106 95.0172 407.996 89.3179 400.153L33.8877 409.431C31.5011 409.971 29.1721 409.531 26.9005 408.109C24.6289 406.688 23.0694 404.708 22.2219 402.17L0.840759 338.143C0.0702685 335.835 0.127365 333.316 1.01205 330.584C1.89672 327.852 3.33981 326.024 5.34131 325.099L56.2633 298.862C56.107 289.938 56.8743 279.936 58.5653 268.857C47.0146 260.404 32.1916 250.607 14.0962 239.467C11.632 237.469 10.0532 235.432 9.35972 233.355C8.43513 230.586 8.47296 228.009 9.47321 225.623C12.2426 217.005 18.2829 203.575 27.594 185.335C36.905 167.094 43.7546 157.242 48.1426 155.776C50.6831 154.928 53.3777 154.926 56.2265 155.77L106.467 173.615C112.932 166.839 120.591 160.178 129.443 153.632C123.662 127.865 120.386 109.212 119.613 97.6724C119.38 91.5951 121.92 87.6695 127.232 85.8957L191.667 64.3786C194.207 63.5302 196.805 63.6243 199.462 64.6607C202.118 65.697 203.947 67.3303 204.949 69.5605L230.599 119.852C239.222 119.538 249.077 120.222 260.164 121.905L290.756 77.452C292.064 75.2199 294.104 73.6412 296.875 72.7157C299.416 71.8674 302.149 71.9805 305.075 73.0551C348.579 92.6367 371.371 105.542 373.451 111.772C374.068 113.618 373.992 116.08 373.222 119.158C371.684 123.775 368.914 131.624 364.914 142.706C360.913 153.787 358.028 162.444 356.259 168.677C365.269 177.978 372.354 186.127 377.514 193.124L432.829 183.5C435.293 183.19 437.66 183.746 439.932 185.167C442.203 186.589 443.763 188.568 444.61 191.107ZM727.922 301.538L744.103 349.992C745.336 353.683 729.324 363.005 696.068 377.958C695.377 385.113 693.916 392.269 691.685 399.425C712.17 421.564 723.376 435.518 725.302 441.286C725.61 442.209 725.418 443.171 724.726 444.172C702.02 469.963 690.437 482.935 689.975 483.089C688.127 483.706 681.005 480.058 668.607 472.144C656.21 464.231 647.585 458.391 642.734 454.625C638.269 456.629 634.882 458.017 632.573 458.788C630.263 459.559 626.722 460.485 621.949 461.566C620.333 467.491 616.948 477.341 611.794 491.116C606.639 504.891 603.138 512.087 601.29 512.704C600.828 512.858 583.774 509.449 550.128 502.476C548.973 502.092 548.241 501.439 547.933 500.516C546.007 494.748 546.58 476.861 549.652 446.855C543.568 442.475 538.101 437.633 533.249 432.329C497.682 440.359 479.282 442.528 478.049 438.836L461.869 390.383C460.636 386.691 476.647 377.369 509.903 362.417C510.671 354.723 512.132 347.568 514.286 340.95C493.801 318.81 482.596 304.857 480.669 299.088C480.361 298.165 480.553 297.204 481.246 296.203C482.016 295.433 485.287 291.776 491.059 285.232C496.832 278.688 502.335 272.491 507.569 266.64C512.803 260.789 515.651 257.786 516.112 257.632C517.96 257.015 525.063 260.605 537.422 268.404C549.781 276.202 558.386 281.984 563.237 285.75C567.702 283.746 571.089 282.358 573.399 281.587C575.708 280.816 579.25 279.89 584.023 278.809C590.331 258.493 596.64 242.025 602.95 229.403L604.797 228.017C605.721 227.708 622.736 231.002 655.844 237.899C656.999 238.282 657.73 238.936 658.038 239.859C659.965 245.627 659.392 263.514 656.32 293.52C662.018 297.515 667.486 302.358 672.723 308.046C708.29 300.016 726.69 297.847 727.922 301.538ZM609.575 -52.8637L625.756 -4.41031C626.988 -0.71862 610.977 8.6033 577.721 23.5554C577.03 30.7106 575.569 37.8665 573.338 45.0229C593.823 67.1622 605.029 81.1161 606.955 86.8843C607.263 87.8072 607.071 88.769 606.378 89.7697C583.673 115.56 572.089 128.533 571.627 128.687C569.78 129.304 562.657 125.656 550.26 117.742C537.863 109.828 529.238 103.989 524.387 100.223C519.922 102.227 516.535 103.615 514.225 104.386C511.916 105.157 508.375 106.083 503.601 107.164C501.986 113.089 498.601 122.939 493.446 136.714C488.292 150.489 484.79 157.685 482.943 158.302C482.481 158.456 465.427 155.047 431.781 148.074C430.626 147.69 429.894 147.037 429.586 146.114C427.66 140.346 428.232 122.459 431.304 92.453C425.221 88.0729 419.753 83.2308 414.902 77.9265C379.335 85.9567 360.935 88.126 359.702 84.4343L343.522 35.9809C342.289 32.2892 358.3 22.9673 391.556 8.01516C392.324 0.321393 393.785 -6.83443 395.939 -13.4523C375.454 -35.5916 364.248 -49.5454 362.322 -55.3137C362.014 -56.2366 362.206 -57.1984 362.899 -58.1991C363.668 -58.969 366.94 -62.626 372.712 -69.1699C378.485 -75.7139 383.988 -81.9114 389.222 -87.7625C394.455 -93.6136 397.303 -96.6163 397.765 -96.7705C399.613 -97.3875 406.716 -93.7968 419.075 -85.9985C431.434 -78.2002 440.039 -72.4182 444.89 -68.6525C449.355 -70.6564 452.742 -72.044 455.052 -72.8152C457.361 -73.5864 460.902 -74.5125 465.676 -75.5935C471.984 -95.9086 478.292 -112.377 484.602 -124.999L486.45 -126.385C487.374 -126.694 504.389 -123.4 537.497 -116.503C538.651 -116.12 539.383 -115.466 539.691 -114.543C541.617 -108.775 541.045 -90.8882 537.973 -60.8824C543.671 -56.8867 549.138 -52.0445 554.375 -46.3559C589.942 -54.3861 608.342 -56.5554 609.575 -52.8637Z" fill="#77D18F" fill-opacity="0.32"/>
</svg>
