<svg width="60" height="60" viewBox="0 0 60 60" fill="none" xmlns="http://www.w3.org/2000/svg">
<g clip-path="url(#clip0_125_5)">
<path fill-rule="evenodd" clip-rule="evenodd" d="M7.05883 54.5965C5.10707 54.5965 3.52942 53.0612 3.52942 51.1765C3.52942 49.2918 5.10707 47.7565 7.05883 47.7565C16.7894 47.7565 21.1765 43.5176 21.1765 33.9671V29.9224H9.03177C6.10236 29.9224 3.71648 27.5294 3.71648 24.5894V10.6271C3.71648 7.68353 6.10236 5.29059 9.03177 5.29059H22.92C25.8494 5.29059 28.2353 7.68353 28.2353 10.6271V33.9635C28.2353 47.2871 20.6788 54.5965 7.05883 54.5965Z" fill="#D4D4D4"/>
<path fill-rule="evenodd" clip-rule="evenodd" d="M38.8235 54.5965C36.8717 54.5965 35.2941 53.0612 35.2941 51.1765C35.2941 49.2918 36.8717 47.7565 38.8235 47.7565C48.5541 47.7565 52.9411 43.5176 52.9411 33.9671V29.8129H40.7047C37.7611 29.8129 35.3682 27.4271 35.3682 24.4976V10.6059C35.3682 7.67647 37.7611 5.29059 40.7047 5.29059H54.6635C57.607 5.29059 59.9999 7.67647 59.9999 10.6059V33.9635C59.9999 47.2871 52.4435 54.5965 38.8235 54.5965Z" fill="#D4D4D4"/>
</g>
<defs>
<clipPath id="clip0_125_5">
<rect width="60" height="60" fill="white"/>
</clipPath>
</defs>
</svg>
